<svg width="25" height="25" viewBox="0 0 25 25" fill="none" xmlns="http://www.w3.org/2000/svg">
<path d="M3.86797 22.0649H21.868" stroke="#F5A033" stroke-width="1.5" stroke-linecap="round" stroke-linejoin="round"/>
<path d="M6.46794 8.44482H4.86797C4.31797 8.44482 3.86797 8.89482 3.86797 9.44482V18.0648C3.86797 18.6148 4.31797 19.0648 4.86797 19.0648H6.46794C7.01794 19.0648 7.46794 18.6148 7.46794 18.0648V9.44482C7.46794 8.89482 7.01794 8.44482 6.46794 8.44482Z" stroke="#F5A033" stroke-width="1.5" stroke-linecap="round" stroke-linejoin="round"/>
<path d="M13.668 5.25488H12.068C11.518 5.25488 11.068 5.70488 11.068 6.25488V18.0649C11.068 18.6149 11.518 19.0649 12.068 19.0649H13.668C14.218 19.0649 14.668 18.6149 14.668 18.0649V6.25488C14.668 5.70488 14.218 5.25488 13.668 5.25488Z" stroke="#F5A033" stroke-width="1.5" stroke-linecap="round" stroke-linejoin="round"/>
<path d="M20.868 2.06494H19.268C18.718 2.06494 18.268 2.51494 18.268 3.06494V18.0649C18.268 18.6149 18.718 19.0649 19.268 19.0649H20.868C21.418 19.0649 21.868 18.6149 21.868 18.0649V3.06494C21.868 2.51494 21.418 2.06494 20.868 2.06494Z" stroke="#F5A033" stroke-width="1.5" stroke-linecap="round" stroke-linejoin="round"/>
</svg>
