<svg width="20" height="20" viewBox="0 0 20 20" fill="none" xmlns="http://www.w3.org/2000/svg">
<path d="M10 20C15.5133 20 20 15.5133 20 10C20 4.48668 15.5134 0 10 0C4.48662 0 0 4.48668 0 10C0 15.5133 4.48668 20 10 20ZM10 1.33331C14.78 1.33331 18.6667 5.21996 18.6667 10C18.6667 14.78 14.78 18.6667 10 18.6667C5.21996 18.6667 1.33331 14.78 1.33331 10C1.33331 5.21996 5.22002 1.33331 10 1.33331Z" fill="#64748B"/>
<path d="M12.9163 13.1864C13.0397 13.2864 13.1863 13.3331 13.333 13.3331C13.5297 13.3331 13.723 13.2464 13.853 13.0831C14.083 12.7964 14.0363 12.3764 13.7497 12.1464L10.6663 9.67974V4.66641C10.6663 4.29974 10.3663 3.99976 9.99966 3.99976C9.63299 3.99976 9.33301 4.29974 9.33301 4.66641V9.99977C9.33301 10.2031 9.42636 10.3931 9.583 10.5197L12.9163 13.1864Z" fill="#64748B"/>
</svg>
