<svg width="12" height="12" viewBox="0 0 12 12" fill="none" xmlns="http://www.w3.org/2000/svg">
<path d="M6.42523 11.9274C8.84581 11.666 10.7857 9.80047 11.0618 7.46683C11.4242 4.41552 8.96413 1.81811 5.88047 1.78484V0.416026C5.88047 0.33998 5.78188 0.299581 5.71532 0.34711L2.79189 2.41696C2.74259 2.45261 2.74259 2.52152 2.79189 2.55717L5.71532 4.62702C5.78188 4.67455 5.88047 4.63178 5.88047 4.55811V3.19167C8.04717 3.22494 9.78249 5.0025 9.6346 7.12701C9.50888 8.95447 7.96336 10.4373 6.06781 10.5538C4.05887 10.6774 2.35066 9.29429 2.04501 7.46446C1.98832 7.12463 1.6802 6.87748 1.32524 6.87748C0.884017 6.87748 0.538923 7.25533 0.607942 7.67596C1.03684 10.2829 3.53384 12.2387 6.42523 11.9274Z" fill="#868686"/>
</svg>
