<svg width="86" height="16" viewBox="0 0 86 16" fill="none" xmlns="http://www.w3.org/2000/svg">
<path d="M15.4277 6.83863L12.1977 9.98841L12.9628 14.4374C12.9712 14.5003 12.9712 14.5542 12.9712 14.6165C12.9712 14.8463 12.864 15.06 12.6066 15.06C12.4821 15.06 12.3575 15.0164 12.251 14.9535L8.25519 12.8538L4.25939 14.9541C4.14449 15.017 4.02895 15.0607 3.90442 15.0607C3.64638 15.0607 3.53083 14.8469 3.53083 14.6171C3.53083 14.5542 3.54046 14.5003 3.54752 14.438L4.31266 9.98905L1.07366 6.83927C0.966462 6.72309 0.851562 6.57224 0.851562 6.41177C0.851562 6.14474 1.12822 6.03754 1.34967 6.00288L5.81727 5.35328L7.8187 1.3042C7.89958 1.13538 8.05042 0.938965 8.25519 0.938965C8.45995 0.938965 8.6108 1.13538 8.69103 1.3042L10.6937 5.35328L15.1607 6.00288C15.3725 6.03818 15.6582 6.14538 15.6582 6.41177C15.6582 6.5716 15.5433 6.72309 15.4277 6.83863Z" fill="#FFD200"/>
<path d="M32.8008 6.83863L29.5708 9.98841L30.3359 14.4374C30.3442 14.5003 30.3442 14.5542 30.3442 14.6165C30.3442 14.8463 30.237 15.06 29.9796 15.06C29.8551 15.06 29.7306 15.0164 29.624 14.9535L25.6282 12.8538L21.6324 14.9541C21.5175 15.017 21.402 15.0607 21.2775 15.0607C21.0194 15.0607 20.9039 14.8469 20.9039 14.6171C20.9039 14.5542 20.9135 14.5003 20.9206 14.438L21.6857 9.98905L18.4467 6.83927C18.3395 6.72309 18.2246 6.57224 18.2246 6.41177C18.2246 6.14474 18.5013 6.03754 18.7227 6.00288L23.1903 5.35328L25.1917 1.3042C25.2726 1.13538 25.4235 0.938965 25.6282 0.938965C25.833 0.938965 25.9838 1.13538 26.0641 1.3042L28.0668 5.35328L32.5337 6.00288C32.7456 6.03818 33.0312 6.14538 33.0312 6.41177C33.0312 6.5716 32.9163 6.72309 32.8008 6.83863Z" fill="#FFD200"/>
<path d="M50.1758 6.83863L46.9458 9.98841L47.7109 14.4374C47.7192 14.5003 47.7192 14.5542 47.7192 14.6165C47.7192 14.8463 47.612 15.06 47.3546 15.06C47.2301 15.06 47.1056 15.0164 46.999 14.9535L43.0032 12.8538L39.0074 14.9541C38.8925 15.017 38.777 15.0607 38.6525 15.0607C38.3944 15.0607 38.2789 14.8469 38.2789 14.6171C38.2789 14.5542 38.2885 14.5003 38.2956 14.438L39.0607 9.98905L35.8217 6.83927C35.7145 6.72309 35.5996 6.57224 35.5996 6.41177C35.5996 6.14474 35.8763 6.03754 36.0977 6.00288L40.5653 5.35328L42.5667 1.3042C42.6476 1.13538 42.7985 0.938965 43.0032 0.938965C43.208 0.938965 43.3588 1.13538 43.4391 1.3042L45.4418 5.35328L49.9087 6.00288C50.1206 6.03818 50.4062 6.14538 50.4062 6.41177C50.4062 6.5716 50.2913 6.72309 50.1758 6.83863Z" fill="#FFD200"/>
<path d="M84.9238 6.83863L81.6938 9.98841L82.4589 14.4374C82.4673 14.5003 82.4673 14.5542 82.4673 14.6165C82.4673 14.8463 82.3601 15.06 82.1027 15.06C81.9782 15.06 81.8536 15.0164 81.7471 14.9535L77.7513 12.8538L73.7555 14.9541C73.6406 15.017 73.525 15.0607 73.4005 15.0607C73.1425 15.0607 73.0269 14.8469 73.0269 14.6171C73.0269 14.5542 73.0366 14.5003 73.0436 14.438L73.8088 9.98905L70.5698 6.83927C70.4626 6.72309 70.3477 6.57224 70.3477 6.41177C70.3477 6.14474 70.6243 6.03754 70.8458 6.00288L75.3134 5.35328L77.3148 1.3042C77.3957 1.13538 77.5465 0.938965 77.7513 0.938965C77.956 0.938965 78.1069 1.13538 78.1871 1.3042L80.1898 5.35328L84.6568 6.00288C84.8686 6.03818 85.1543 6.14538 85.1543 6.41177C85.1543 6.5716 85.0394 6.72309 84.9238 6.83863Z" fill="#FFD200"/>
<path d="M67.5508 6.83863L64.3208 9.98841L65.0859 14.4374C65.0942 14.5003 65.0942 14.5542 65.0942 14.6165C65.0942 14.8463 64.987 15.06 64.7296 15.06C64.6051 15.06 64.4806 15.0164 64.374 14.9535L60.3782 12.8538L56.3824 14.9541C56.2675 15.017 56.152 15.0607 56.0275 15.0607C55.7694 15.0607 55.6539 14.8469 55.6539 14.6171C55.6539 14.5542 55.6635 14.5003 55.6706 14.438L56.4357 9.98905L53.1967 6.83927C53.0895 6.72309 52.9746 6.57224 52.9746 6.41177C52.9746 6.14474 53.2513 6.03754 53.4727 6.00288L57.9403 5.35328L59.9417 1.3042C60.0226 1.13538 60.1735 0.938965 60.3782 0.938965C60.583 0.938965 60.7338 1.13538 60.8141 1.3042L62.8168 5.35328L67.2837 6.00288C67.4956 6.03818 67.7812 6.14538 67.7812 6.41177C67.7812 6.5716 67.6663 6.72309 67.5508 6.83863Z" fill="#FFD200"/>
</svg>
