<svg width="10" height="13" viewBox="0 0 10 13" fill="none" xmlns="http://www.w3.org/2000/svg">
<path fill-rule="evenodd" clip-rule="evenodd" d="M6.11165 8.45898C8.71145 8.83134 9.38631 10.3589 9.38631 12.1871H0.181641C0.181641 10.3589 0.856485 8.83131 3.4563 8.45898C3.74613 8.92719 4.17151 9.20416 4.784 9.20416C5.39647 9.20416 5.82185 8.92719 6.11165 8.45898Z" fill="#54595F"/>
<path fill-rule="evenodd" clip-rule="evenodd" d="M6.86838 3.2959C7.33801 3.80265 7.62521 4.48088 7.62521 5.22626C7.62521 6.79526 6.35328 8.06719 4.78428 8.06719C3.21528 8.06719 1.94336 6.79526 1.94336 5.22626C1.94336 4.48088 2.23055 3.80265 2.70018 3.2959C3.30421 3.37375 4.01857 3.41876 4.78428 3.41876C5.54999 3.41876 6.26434 3.37375 6.86838 3.2959Z" fill="#54595F"/>
<path fill-rule="evenodd" clip-rule="evenodd" d="M6.86793 2.24609V2.93868C6.26384 3.01653 5.54938 3.06156 4.78356 3.06156C4.01774 3.06156 3.30331 3.01653 2.69922 2.93868V2.24609L4.15449 2.58263C4.588 2.68289 4.97911 2.68289 5.41263 2.58263L6.86793 2.24609Z" fill="#54595F"/>
<path fill-rule="evenodd" clip-rule="evenodd" d="M0.104177 1.06952L4.15459 0.132817C4.58811 0.0325507 4.97922 0.0325507 5.41273 0.132817L9.46315 1.06952C9.52486 1.0838 9.56732 1.13719 9.56732 1.20054C9.56732 1.26389 9.52486 1.31729 9.46315 1.33157L8.62595 1.52519V3.19732L9.07703 3.9786C9.13976 4.08694 9.1028 4.22569 8.99446 4.28842C8.88612 4.35116 8.74736 4.3142 8.68464 4.20585L8.62595 4.10422V4.22139C8.62595 4.34691 8.52419 4.44868 8.39867 4.44868C8.27315 4.44868 8.17138 4.34691 8.17138 4.22139V4.10417L8.11271 4.2058C8.04997 4.31414 7.91122 4.3511 7.80288 4.28837C7.69454 4.22563 7.65757 4.08688 7.72031 3.97854L8.17138 3.19726V1.6303L5.41273 2.26827C4.97922 2.36853 4.58811 2.36853 4.15459 2.26827L0.104177 1.33157C0.0424625 1.31729 0 1.26389 0 1.20054C1.3477e-08 1.13719 0.0424341 1.0838 0.104177 1.06952Z" fill="#54595F"/>
</svg>
