<svg width="25" height="25" viewBox="0 0 25 25" fill="none" xmlns="http://www.w3.org/2000/svg">
<path d="M10.7683 2.59498L4.74827 6.52498C2.81827 7.78498 2.81827 10.605 4.74827 11.865L10.7683 15.795C11.8483 16.505 13.6283 16.505 14.7083 15.795L20.6983 11.865C22.6183 10.605 22.6183 7.79498 20.6983 6.53498L14.7083 2.60498C13.6283 1.88498 11.8483 1.88498 10.7683 2.59498Z" stroke="#F5A033" stroke-width="1.5" stroke-linecap="round" stroke-linejoin="round"/>
<path d="M6.34826 13.145L6.33826 17.835C6.33826 19.105 7.31826 20.465 8.51826 20.865L11.7083 21.925C12.2583 22.105 13.1683 22.105 13.7283 21.925L16.9183 20.865C18.1183 20.465 19.0983 19.105 19.0983 17.835V13.195" stroke="#F5A033" stroke-width="1.5" stroke-linecap="round" stroke-linejoin="round"/>
<path d="M22.1183 15.0649V9.06494" stroke="#F5A033" stroke-width="1.5" stroke-linecap="round" stroke-linejoin="round"/>
</svg>
