<svg width="21" height="21" viewBox="0 0 21 21" fill="none" xmlns="http://www.w3.org/2000/svg">
<path d="M10.7183 20.0649C16.2316 20.0649 20.7183 15.5783 20.7183 10.0649C20.7183 4.55162 16.2316 0.0649414 10.7183 0.0649414C5.20488 0.0649414 0.718262 4.55162 0.718262 10.0649C0.718262 15.5783 5.20494 20.0649 10.7183 20.0649ZM10.7183 1.39825C15.4982 1.39825 19.385 5.28491 19.385 10.0649C19.385 14.845 15.4983 18.7316 10.7183 18.7316C5.93823 18.7316 2.05157 14.845 2.05157 10.0649C2.05157 5.28491 5.93828 1.39825 10.7183 1.39825Z" fill="#F5A033"/>
<path d="M13.6347 13.2515C13.758 13.3515 13.9047 13.3982 14.0513 13.3982C14.248 13.3982 14.4413 13.3115 14.5713 13.1482C14.8013 12.8615 14.7546 12.4415 14.468 12.2115L11.3847 9.74481V4.73147C11.3847 4.3648 11.0847 4.06482 10.718 4.06482C10.3513 4.06482 10.0513 4.3648 10.0513 4.73147V10.0648C10.0513 10.2682 10.1447 10.4582 10.3013 10.5848L13.6347 13.2515Z" fill="#F5A033"/>
</svg>
