<?xml version="1.0" encoding="utf-8"?><svg width="296" height="266" viewBox="0 0 296 266" xmlns="http://www.w3.org/2000/svg" xmlns:xlink="http://www.w3.org/1999/xlink"><svg viewBox="-1 -1 16 10" style="enable-background:new 0 0 14 8" xml:space="preserve" width="16" height="10" id="arrow-dropdown" x="275.13" y="206.5" xmlns="http://www.w3.org/2000/svg"><path style="fill:#fff" d="M.3-2398.1c-.2-.2-.3-.5-.3-.8 0-.6.5-1.1 1.2-1.1.4 0 .7.1.9.4l4.9 4.9 4.9-4.9c.2-.2.5-.4.9-.4.7 0 1.2.5 1.2 1.1 0 .3-.1.6-.3.8l-5.8 5.8c-.2.2-.5.4-.9.4s-.7-.1-.9-.4l-5.8-5.8z" transform="translate(0 2400)"/></svg><svg width="16" height="15" viewBox="-1 -1 16 15" id="arrow-right" x="275.13" y="216.5" xmlns="http://www.w3.org/2000/svg"><g stroke="#000" stroke-width="1.5" fill="none" fill-rule="evenodd" stroke-linecap="round" stroke-linejoin="round"><path d="M1 6.5h10.667M7.667 1 13 6.5 7.667 12"/></g></svg><svg width="23" height="18" viewBox="-1 -1 23 18" id="ask-question-icon" x="226" y="220" xmlns="http://www.w3.org/2000/svg"><g fill="none" fill-rule="evenodd"><path d="M8.02 11.83a9.6 9.6 0 0 0 5.11-1.33c1.54-1 2.56-2.55 2.56-4 0-1.67-1.26-3.45-3.16-4.44a10.2 10.2 0 0 0-4.5-.94C4.13 1.12 1 3.72 1 6.5c0 .5.42 1.94 1.28 2.94.66.76 1.2.76 1.52 1.28.23.35-.18.54-.37.8-.28.38-.58.87-.9 1.47 1.37-.1 2.47-.4 3.3-.92.34-.22.63-.4.79-.4.3 0 .46.17 1.4.17Z" stroke="#1E1EF0" stroke-width="1.5" fill="#FFF"/><path d="M8.03 14c2.53 0 5.86-.72 7.8-2.48a6.93 6.93 0 0 0 1.92-3.16c.24-.87.2-1.65.2-2.32 0-.31-.04-.62-.1-.9 2 1.07 3.34 2.86 3.34 4.72 0 .52-.45 2.07-1.37 3.14-.7.81-1.28.81-1.62 1.36-.24.38.19.58.39.85.45.61 1.23 1.1.97 1.58-.03.04-.19.22-.26.21a7.73 7.73 0 0 1-3.26-1.2c-.37-.23-.69-.43-.85-.43-.33 0-.5.19-1.5.19A10.26 10.26 0 0 1 8.03 14Z" fill="#1E1EF0"/></g></svg><svg width="23" height="21" viewBox="-1 -1 23 21" id="basket" x="252.13" xmlns="http://www.w3.org/2000/svg"><path fill="none" stroke="#333" stroke-linecap="round" stroke-width="2" d="m12.999 1 4.506 5.49L13 1zM3.503 6.498 8 1 3.503 6.498zM1 6.998h19V9.96l-2.23 7.075c-.18.557-.688.943-1.27.965h-12a1.393 1.393 0 0 1-1.263-.965L1 9.96V6.997z"/></svg><svg width="23" height="21" viewBox="-1 -1 23 21" id="basket-blue" x="252.13" y="21" xmlns="http://www.w3.org/2000/svg"><path fill="none" stroke="#1E1EF0" stroke-linecap="round" stroke-width="2" d="m12.999 1 4.506 5.49L13 1zM3.503 6.498 8 1 3.503 6.498zM1 6.998h19V9.96l-2.23 7.075c-.18.557-.688.943-1.27.965h-12a1.393 1.393 0 0 1-1.263-.965L1 9.96V6.997z"/></svg><svg width="26" height="26" fill="none" viewBox="-1 -1 26 26" id="certificate-icon" x="198.13" y="53" xmlns="http://www.w3.org/2000/svg"><path d="M22 13V6a2 2 0 0 0-2-2H4a2 2 0 0 0-2 2v12a2 2 0 0 0 2 2h11l7-7Z" stroke="#1E1EF0" stroke-width="1.5" stroke-linecap="round" stroke-linejoin="round"/><path d="M15 20h7v-7" stroke="#1E1EF0" stroke-width="1.5" stroke-linecap="round" stroke-linejoin="round"/><path d="M6 11.5h12M6 14.5h12" stroke="#1E1EF0" stroke-linecap="round"/><path d="M15.138 17.523 14.543 22 17 20.526 19.457 22l-.595-4.481" fill="#fff"/><path d="M15.138 17.523 14.543 22 17 20.526 19.457 22l-.595-4.481" stroke="#1E1EF0" stroke-width=".983" stroke-linecap="round" stroke-linejoin="round"/><path d="M17 18.284a3.792 3.792 0 1 0 0-7.584 3.792 3.792 0 0 0 0 7.584Z" fill="#fff" stroke="#1E1EF0" stroke-width="1.083" stroke-linecap="round" stroke-linejoin="round"/><path d="M6 8.5h12" stroke="#1E1EF0" stroke-linecap="round"/></svg><svg viewBox="-1 -1 19 19" width="19" height="19" id="checkbox" x="275.13" y="77" xmlns="http://www.w3.org/2000/svg"><path d="M16 14c0 1.1-.9 2-2 2H3c-1.1 0-2-.9-2-2V3c0-1.1.9-2 2-2h11c1.1 0 2 .9 2 2v11z" style="fill:#fff;stroke:#0f151a"/></svg><svg viewBox="-1 -1 19 19" width="19" height="19" id="checkbox-checked" x="275.13" y="96" xmlns="http://www.w3.org/2000/svg"><path d="M16 14c0 1.1-.9 2-2 2H3c-1.1 0-2-.9-2-2V3c0-1.1.9-2 2-2h11c1.1 0 2 .9 2 2v11z" style="fill:#1e1ef0;stroke-miterlimit:10;stroke:#1e1ef0"/><path style="fill:none;stroke-linecap:round;stroke-linejoin:round;stroke-miterlimit:10;stroke-width:1.5;stroke:#fff" d="m5.5 8.6 2.5 2 3.5-4"/></svg><svg width="15" height="9" viewBox="-1 -1 15 9" id="chevron-down-black" x="226.13" y="208" xmlns="http://www.w3.org/2000/svg"><path d="M12.721 1.642A.943.943 0 0 0 13 .951C13 .432 12.536 0 11.886 0c-.371 0-.65.173-.836.346L6.5 4.58 1.95.346A1.216 1.216 0 0 0 1.114 0C.464 0 0 .432 0 .951c0 .259.093.519.279.691l5.386 5.012c.185.173.464.346.835.346.371 0 .65-.173.836-.346l5.385-5.012z" fill="#0F151A"/></svg><svg width="15" height="9" viewBox="-1 -1 15 9" id="chevron-down-blue" x="198.13" y="183" xmlns="http://www.w3.org/2000/svg"><path d="M12.721 1.642A.943.943 0 0 0 13 .951C13 .432 12.536 0 11.886 0c-.371 0-.65.173-.836.346L6.5 4.58 1.95.346A1.216 1.216 0 0 0 1.114 0C.464 0 0 .432 0 .951c0 .259.093.519.279.691l5.386 5.012c.185.173.464.346.835.346.371 0 .65-.173.836-.346l5.385-5.012z" fill="#1E1EF0"/></svg><svg width="15" height="9" viewBox="-1 -1 15 9" id="chevron-down-blue-dark" x="146.13" y="101" xmlns="http://www.w3.org/2000/svg"><path d="M12.721 1.642A.943.943 0 0 0 13 .951C13 .432 12.536 0 11.886 0c-.371 0-.65.173-.836.346L6.5 4.58 1.95.346A1.216 1.216 0 0 0 1.114 0C.464 0 0 .432 0 .951c0 .259.093.519.279.691l5.386 5.012c.185.173.464.346.835.346.371 0 .65-.173.836-.346l5.385-5.012z" fill="#181A9A"/></svg><svg width="15" height="9" viewBox="-1 -1 15 9" id="chevron-down-white" x="161.13" y="101" xmlns="http://www.w3.org/2000/svg"><path d="M12.721 1.642A.943.943 0 0 0 13 .951C13 .432 12.536 0 11.886 0c-.371 0-.65.173-.836.346L6.5 4.58 1.95.346A1.216 1.216 0 0 0 1.114 0C.464 0 0 .432 0 .951c0 .259.093.519.279.691l5.386 5.012c.185.173.464.346.835.346.371 0 .65-.173.836-.346l5.385-5.012z" fill="#fff"/></svg><svg width="10" height="16" xml:space="preserve" viewBox="-1 -1 10 16" id="chevron-left" x="275.13" y="231.5" xmlns="http://www.w3.org/2000/svg"><path fill="#555" d="M6.14.31C6.34.13 6.6 0 6.9 0 7.5 0 8 .54 8 1.2c0 .35-.14.66-.36.88L2.76 7l4.88 4.92c.22.22.36.53.36.88 0 .66-.5 1.2-1.1 1.2-.3 0-.56-.12-.76-.32L.36 7.88C.13 7.67 0 7.35 0 7s.13-.66.36-.88L6.14.32z" style="fill:#333;fill-opacity:1"/></svg><svg viewBox="-1 -1 9 15" width="9" height="15" id="chevron-left-black" x="265.13" y="42" xmlns="http://www.w3.org/2000/svg"><path d="M5.358 12.721a.943.943 0 0 0 .691.279c.519 0 .951-.464.951-1.114 0-.371-.173-.65-.346-.836L2.42 6.5l4.234-4.55c.173-.186.346-.464.346-.836C7 .464 6.568 0 6.049 0a.941.941 0 0 0-.691.279L.346 5.665A1.214 1.214 0 0 0 0 6.5c0 .371.173.65.346.836l5.012 5.385z" fill="#0F151A"/></svg><svg viewBox="-1 -1 9 15" width="9" height="15" id="chevron-left-blue" x="265.13" y="64" xmlns="http://www.w3.org/2000/svg"><path d="M5.358 12.721a.943.943 0 0 0 .691.279c.519 0 .951-.464.951-1.114 0-.371-.173-.65-.346-.836L2.42 6.5l4.234-4.55c.173-.186.346-.464.346-.836C7 .464 6.568 0 6.049 0a.941.941 0 0 0-.691.279L.346 5.665A1.214 1.214 0 0 0 0 6.5c0 .371.173.65.346.836l5.012 5.385z" fill="#1E1EF0"/></svg><svg viewBox="-1 -1 9 15" width="9" height="15" id="chevron-left-blue-dark" x="136" y="92" xmlns="http://www.w3.org/2000/svg"><path d="M5.358 12.721a.943.943 0 0 0 .691.279c.519 0 .951-.464.951-1.114 0-.371-.173-.65-.346-.836L2.42 6.5l4.234-4.55c.173-.186.346-.464.346-.836C7 .464 6.568 0 6.049 0a.941.941 0 0 0-.691.279L.346 5.665A1.214 1.214 0 0 0 0 6.5c0 .371.173.65.346.836l5.012 5.385z" fill="#181A9A"/></svg><svg viewBox="-1 -1 30 54" width="30" height="54" id="chevron-left-blue-large" y="60" xmlns="http://www.w3.org/2000/svg"><path d="M21.211 50.884c.685.744 1.71 1.116 2.736 1.116 2.055 0 3.765-1.856 3.765-4.456 0-1.484-.685-2.6-1.37-3.344L9.58 26 26.342 7.8c.685-.744 1.37-1.856 1.37-3.344 0-2.6-1.71-4.456-3.765-4.456-1.025 0-2.055.372-2.736 1.116L1.37 22.66C.685 23.4 0 24.516 0 26c0 1.484.685 2.6 1.37 3.344l19.841 21.54z" style="fill:#1e1ef0"/></svg><svg width="10" height="16" xml:space="preserve" viewBox="-1 -1 10 16" id="chevron-left-disabled" x="285.13" y="231.5" xmlns="http://www.w3.org/2000/svg"><path fill="#555" d="m6.139.314.002.004C6.338.123 6.6 0 6.891 0 7.502 0 8 .538 8 1.2c0 .35-.141.661-.361.881l.002.003L2.755 7l4.886 4.915-.002.004c.22.22.361.531.361.881 0 .663-.498 1.2-1.109 1.2a1.06 1.06 0 0 1-.75-.318l-.002.002-5.78-5.799C.131 7.657 0 7.337 0 7s.131-.657.359-.884L6.139.314z" style="fill:#cfddf3;fill-opacity:1"/></svg><svg viewBox="-1 -1 9 15" width="9" height="15" id="chevron-left-white" x="72.03999999999999" y="246" xmlns="http://www.w3.org/2000/svg"><path d="M5.358.279A.943.943 0 0 1 6.049 0C6.568 0 7 .464 7 1.114c0 .371-.173.65-.346.836L2.42 6.5l4.234 4.55c.173.186.346.464.346.836C7 12.536 6.568 13 6.049 13a.941.941 0 0 1-.691-.279L.346 7.335A1.214 1.214 0 0 1 0 6.5c0-.371.173-.65.346-.836L5.358.279Z" style="fill:#fff"/></svg><svg width="17" height="32" viewBox="-1 -1 17 32" id="chevron-left-white-chunky" x="112" y="60" xmlns="http://www.w3.org/2000/svg"><path d="M11.5.7c.4-.4.9-.6 1.5-.6 1.1 0 2 1.1 2 2.6 0 .9-.4 1.5-.7 1.9L5.2 15l9 10.5c.4.4.7 1.1.7 1.9 0 1.5-.9 2.6-2 2.6-.6 0-1.1-.2-1.5-.6L.7 16.9c-.3-.4-.7-1-.7-1.9 0-.8.4-1.5.7-1.9Z" style="fill:#fff;stroke-width:2"/></svg><svg width="13" height="22" viewBox="-1 -1 13 22" id="chevron-left-white-large" x="252.13" y="42" xmlns="http://www.w3.org/2000/svg"><path d="m10 1-9 9 9 9" stroke="#FFF" stroke-width="2" fill="none" fill-rule="evenodd" stroke-linecap="round" stroke-linejoin="round"/></svg><svg width="10" height="16" viewBox="-1 -1 10 16" id="chevron-right" x="275.13" y="247.5" xmlns="http://www.w3.org/2000/svg"><path d="m1.862 13.686-.002-.004a1.065 1.065 0 0 1-.749.318C.498 14 0 13.462 0 12.8c0-.35.141-.661.362-.881l-.002-.003L5.245 7 .36 2.085l.002-.004A1.236 1.236 0 0 1 0 1.2C0 .537.498 0 1.111 0c.29 0 .551.122.749.319l.002-.003 5.779 5.799C7.869 6.343 8 6.663 8 7s-.131.657-.359.884l-5.779 5.802z" fill="#333"/></svg><svg viewBox="-1 -1 9 15" width="9" height="15" id="chevron-right-black" x="81.03999999999999" y="246" xmlns="http://www.w3.org/2000/svg"><path d="M1.642 12.721A.943.943 0 0 1 .951 13C.432 13 0 12.536 0 11.886c0-.371.173-.65.346-.836L4.58 6.5.346 1.95A1.216 1.216 0 0 1 0 1.114C0 .464.432 0 .951 0c.259 0 .519.093.691.279l5.012 5.386c.173.185.346.464.346.835s-.173.65-.346.836l-5.012 5.385z" fill="#0F151A"/></svg><svg viewBox="-1 -1 9 15" width="9" height="15" id="chevron-right-blue" x="90.03999999999999" y="246" xmlns="http://www.w3.org/2000/svg"><path d="M1.642 12.721A.943.943 0 0 1 .951 13C.432 13 0 12.536 0 11.886c0-.371.173-.65.346-.836L4.58 6.5.346 1.95A1.216 1.216 0 0 1 0 1.114C0 .464.432 0 .951 0c.259 0 .519.093.691.279l5.012 5.386c.173.185.346.464.346.835s-.173.65-.346.836l-5.012 5.385z" fill="#1E1EF0"/></svg><svg viewBox="-1 -1 9 15" width="9" height="15" id="chevron-right-blue-dark" x="99.03999999999999" y="246" xmlns="http://www.w3.org/2000/svg"><path d="M1.642 12.721A.943.943 0 0 1 .951 13C.432 13 0 12.536 0 11.886c0-.371.173-.65.346-.836L4.58 6.5.346 1.95A1.216 1.216 0 0 1 0 1.114C0 .464.432 0 .951 0c.259 0 .519.093.691.279l5.012 5.386c.173.185.346.464.346.835s-.173.65-.346.836l-5.012 5.385z" fill="#181A9A"/></svg><svg viewBox="-1 -1 30 54" width="30" height="54" id="chevron-right-blue-large" x="30" y="60" xmlns="http://www.w3.org/2000/svg"><path d="M6.552 50.884C5.862 51.628 4.828 52 3.795 52 1.724 52 0 50.144 0 47.544c0-1.484.69-2.6 1.38-3.344L18.277 26 1.38 7.8C.69 7.056 0 5.944 0 4.456 0 1.856 1.724 0 3.795 0c1.033 0 2.07.372 2.757 1.116l20 21.544c.69.74 1.38 1.856 1.38 3.34 0 1.484-.69 2.6-1.38 3.344l-20 21.54Z" style="fill:#1e1ef0"/></svg><svg width="10" height="16" viewBox="-1 -1 10 16" id="chevron-right-disabled" x="285.13" y="247.5" xmlns="http://www.w3.org/2000/svg"><path d="m1.862 13.686-.002-.004a1.065 1.065 0 0 1-.749.318C.498 14 0 13.462 0 12.8c0-.35.141-.661.362-.881l-.002-.003L5.245 7 .36 2.085l.002-.004A1.236 1.236 0 0 1 0 1.2C0 .537.498 0 1.111 0c.29 0 .551.122.749.319l.002-.003 5.779 5.799C7.869 6.343 8 6.663 8 7s-.131.657-.359.884l-5.779 5.802z" fill="#cfddf3"/></svg><svg viewBox="-1 -1 9 15" width="9" height="15" id="chevron-right-white" x="108.03999999999999" y="246" xmlns="http://www.w3.org/2000/svg"><path d="M1.642 12.721A.943.943 0 0 1 .951 13C.432 13 0 12.536 0 11.886c0-.371.173-.65.346-.836L4.58 6.5.346 1.95A1.216 1.216 0 0 1 0 1.114C0 .464.432 0 .951 0c.259 0 .519.093.691.279l5.012 5.386c.173.185.346.464.346.835s-.173.65-.346.836l-5.012 5.385z" fill="#FFF"/></svg><svg width="17" height="32" viewBox="-1 -1 17 32" id="chevron-right-white-chunky" x="129" y="60" xmlns="http://www.w3.org/2000/svg"><path d="M3.5 29.36c-.37.43-.92.64-1.47.64C.93 30 0 28.93 0 27.43c0-.86.37-1.5.74-1.93l9.03-10.51L.74 4.49A2.93 2.93 0 0 1 0 2.54C0 1.05.92-.02 2.03-.02c.55 0 1.1.21 1.47.64l10.7 12.44c.36.43.73 1.07.73 1.93 0 .86-.37 1.5-.74 1.93z" style="fill:#fff;stroke-width:2.21950006"/></svg><svg width="13" height="22" viewBox="-1 -1 13 22" id="chevron-right-white-large" x="252.13" y="64" xmlns="http://www.w3.org/2000/svg"><path d="m1 1 9 9-9 9" stroke="#FFF" stroke-width="2" fill="none" fill-rule="evenodd" stroke-linecap="round" stroke-linejoin="round"/></svg><svg width="15" height="9" viewBox="-1 -1 15 9" id="chevron-up-black" x="176.13" y="101" xmlns="http://www.w3.org/2000/svg"><path d="M12.721 5.358a.943.943 0 0 1 .279.691c0 .519-.464.951-1.114.951-.371 0-.65-.173-.836-.346L6.5 2.42 1.95 6.654A1.216 1.216 0 0 1 1.114 7C.464 7 0 6.568 0 6.049c0-.259.093-.519.279-.691L5.665.346C5.85.173 6.129 0 6.5 0c.371 0 .65.173.836.346l5.385 5.012z" fill="#0F151A"/></svg><svg width="15" height="9" viewBox="-1 -1 15 9" id="chevron-up-blue" x="117.03999999999999" y="246" xmlns="http://www.w3.org/2000/svg"><path d="M12.721 5.358a.943.943 0 0 1 .279.691c0 .519-.464.951-1.114.951-.371 0-.65-.173-.836-.346L6.5 2.42 1.95 6.654A1.216 1.216 0 0 1 1.114 7C.464 7 0 6.568 0 6.049c0-.259.093-.519.279-.691L5.665.346C5.85.173 6.129 0 6.5 0c.371 0 .65.173.836.346l5.385 5.012z" fill="#1E1EF0"/></svg><svg width="15" height="9" viewBox="-1 -1 15 9" id="chevron-up-blue-dark" x="132.04" y="246" xmlns="http://www.w3.org/2000/svg"><path d="M12.721 5.358a.943.943 0 0 1 .279.691c0 .519-.464.951-1.114.951-.371 0-.65-.173-.836-.346L6.5 2.42 1.95 6.654A1.216 1.216 0 0 1 1.114 7C.464 7 0 6.568 0 6.049c0-.259.093-.519.279-.691L5.665.346C5.85.173 6.129 0 6.5 0c.371 0 .65.173.836.346l5.385 5.012z" fill="#081351"/></svg><svg width="15" height="9" viewBox="-1 -1 15 9" id="chevron-up-white" x="147.04" y="246" xmlns="http://www.w3.org/2000/svg"><path d="M12.721 5.358a.943.943 0 0 1 .279.691c0 .519-.464.951-1.114.951-.371 0-.65-.173-.836-.346L6.5 2.42 1.95 6.654A1.216 1.216 0 0 1 1.114 7C.464 7 0 6.568 0 6.049c0-.259.093-.519.279-.691L5.665.346C5.85.173 6.129 0 6.5 0c.371 0 .65.173.836.346l5.385 5.012z" fill="#fff"/></svg><svg viewBox="-1 -1 26 26" fill="none" width="26" height="26" id="classroom-icon" x="198.13" y="79" xmlns="http://www.w3.org/2000/svg"><path d="M21 10c0 7-9 13-9 13s-9-6-9-13a9 9 0 1 1 18 0Z" stroke="#2E3237" stroke-width="1.5" stroke-linecap="round" stroke-linejoin="round"/><path d="M12 13a3 3 0 1 0 0-6 3 3 0 0 0 0 6Z" stroke="#2E3237" stroke-width="1.5" stroke-linecap="round" stroke-linejoin="round"/></svg><svg width="16" height="16" viewBox="-1 -1 16 16" id="close-plain" x="40.04" y="246" xmlns="http://www.w3.org/2000/svg"><path fill="none" stroke="#333" stroke-linecap="round" stroke-linejoin="round" stroke-width="1.5" d="M13 1 1 13M1 1l12 12"/></svg><svg version="1.0" viewBox="-1 -1 28.4 25.8" xml:space="preserve" width="28.4" height="25.8" id="compare" x="100" y="156" xmlns="http://www.w3.org/2000/svg"><path fill="none" stroke="#333" stroke-miterlimit="10" d="M13.7 23h-11c-1.1 0-2-.9-2-2v-8c0-1.1.9-2 2-2h11c1.1 0 2 .9 2 2v8c0 1.1-.9 2-2 2z" style="stroke-width:1.5px"/><g fill-rule="evenodd" clip-rule="evenodd" fill="#333" stroke="#333" stroke-linecap="round" stroke-miterlimit="10"><path style="stroke-width:1.5px" d="m8.6 15 2 2-2 2M9.7 17h-5"/></g><path fill="none" stroke="#333" stroke-miterlimit="10" d="M16.2 14h7.5c1.1 0 2-.9 2-2V4c0-1.1-.9-2-2-2h-11c-1.1 0-2 .9-2 2v6.5" style="stroke-width:1.5px"/><g fill-rule="evenodd" clip-rule="evenodd" fill="#333" stroke="#333" stroke-linecap="round" stroke-miterlimit="10"><path style="stroke-width:1.5px" d="m17.8 6-2 2 2 2M16.8 8h4.9"/></g></svg><svg width="23" height="24" fill="none" viewBox="-1 -1 23 24" id="completed-document-lecture" x="152.4" y="156" xmlns="http://www.w3.org/2000/svg"><path d="M10.5 5.501h-6a1.5 1.5 0 0 0-1.5 1.5v12a1.5 1.5 0 0 0 1.5 1.5h9a1.5 1.5 0 0 0 1.5-1.5v-9l-4.5-4.5Z" stroke="#50B446" stroke-width="1.5" stroke-linecap="round" stroke-linejoin="round"/><path d="M10.5 5.501v4.5H15M12 13.748H6M12 16.752H6M7.5 10.75H6" stroke="#50B446" stroke-width="1.5" stroke-linecap="round" stroke-linejoin="round"/><circle cx="15" cy="6" r="5.437" fill="#50B446" stroke="#50B446" stroke-width="1.125"/><path d="m14.215 8.592 4.125-4.125a.475.475 0 0 0 0-.684.475.475 0 0 0-.684 0l-3.783 3.783-1.533-1.533a.475.475 0 0 0-.684 0 .475.475 0 0 0 0 .684l1.875 1.875a.462.462 0 0 0 .342.145.462.462 0 0 0 .342-.145Z" fill="#F6FBF5" stroke="#F6FBF5" stroke-width=".225"/></svg><svg width="24" height="25" fill="none" viewBox="-1 -1 24 25" id="completed-quiz-lecture" x="128.4" y="156" xmlns="http://www.w3.org/2000/svg"><path d="M8.999 21.503a7.5 7.5 0 1 0 0-15 7.5 7.5 0 0 0 0 15Z" stroke="#50B446" stroke-width="1.5" stroke-linecap="round" stroke-linejoin="round"/><path d="M6.816 11.746a2.25 2.25 0 0 1 4.372.75c0 1.5-2.25 2.25-2.25 2.25M9 17.753h.007" stroke="#50B446" stroke-width="1.5" stroke-linecap="round" stroke-linejoin="round"/><circle cx="16" cy="6.922" r="5.437" fill="#50B446" stroke="#50B446" stroke-width="1.125"/><path d="m15.215 9.514 4.125-4.125a.475.475 0 0 0 0-.684.475.475 0 0 0-.684 0l-3.783 3.783-1.533-1.533a.475.475 0 0 0-.684 0 .475.475 0 0 0 0 .684l1.875 1.875a.462.462 0 0 0 .342.145.462.462 0 0 0 .342-.145Z" fill="#F6FBF5" stroke="#F6FBF5" stroke-width=".225"/></svg><svg width="24" height="26" fill="none" viewBox="-1 -1 24 26" id="completed-video-lecture" x="198.13" y="105" xmlns="http://www.w3.org/2000/svg"><g clip-path="url(#bna)" stroke="#50B446" stroke-width="1.5" stroke-linecap="round" stroke-linejoin="round"><path d="M16.907 10.442a2.085 2.085 0 0 0-1.455-1.5c-1.29-.315-6.45-.315-6.45-.315s-5.16 0-6.45.345a2.085 2.085 0 0 0-1.455 1.5 21.75 21.75 0 0 0-.345 3.968c-.009 1.34.107 2.678.345 3.997a2.085 2.085 0 0 0 1.455 1.44c1.29.345 6.45.345 6.45.345s5.16 0 6.45-.345a2.085 2.085 0 0 0 1.455-1.5c.234-1.3.35-2.617.345-3.937a21.753 21.753 0 0 0-.345-3.998v0Z"/><path d="m7.314 16.894 4.313-2.453-4.313-2.452v4.905Z"/></g><circle cx="16" cy="6" r="5.437" fill="#50B446" stroke="#50B446" stroke-width="1.125"/><path d="m15.215 8.592 4.125-4.125a.475.475 0 0 0 0-.684.475.475 0 0 0-.684 0l-3.783 3.783-1.533-1.533a.475.475 0 0 0-.684 0 .475.475 0 0 0 0 .684l1.875 1.875a.462.462 0 0 0 .342.145.462.462 0 0 0 .342-.145Z" fill="#F6FBF5" stroke="#F6FBF5" stroke-width=".225"/><defs><clipPath id="bna"><path fill="#fff" transform="translate(0 5.621)" d="M0 0h18v18H0z"/></clipPath></defs></svg><svg width="49" height="49" viewBox="-1 -1 49 49" id="confirmation-tick" x="146.13" y="52" xmlns="http://www.w3.org/2000/svg"><g fill="none" fill-rule="evenodd" stroke="#7ED321" stroke-linecap="round" stroke-linejoin="round" stroke-width="2"><path d="M46 21.443v2.07A22.5 22.5 0 0 1 4.625 35.746 22.497 22.497 0 0 1 6.396 8.881a22.5 22.5 0 0 1 26.262-5.933"/><path d="M46 6 23.692 28 17 21.407"/></g></svg><svg width="40" height="40" viewBox="-1 -1 12.05 12.05" id="dividebuy" x="42" y="114" xmlns="http://www.w3.org/2000/svg"><g transform="scale(.20108)"><rect width="50" height="50" rx="10.789" style="fill:#fff;fill-opacity:1"/><path d="M105.553 70.868a3.8 3.8 0 0 0 2.895-3.895c0-2.974-2.211-4.474-5.632-4.474h-8.79v.711a9.882 9.882 0 0 1 3.421 7.763 9.6 9.6 0 0 1-2.895 7.316l-.553.5v.895h9c3.737 0 5.763-1.711 5.763-4.711a4.105 4.105 0 0 0-3.209-4.105zm-6.132-4.105h2.079c.974 0 1.421.395 1.421 1.237 0 .842-.474 1.184-1.421 1.184h-2.079zm2.447 8.579h-2.447v-2.421h2.447c.974 0 1.421.421 1.421 1.237 0 .816-.447 1.211-1.421 1.211z" transform="translate(-69.263 -46.053)" style="fill:#002f6d;fill-opacity:1"/><path d="M55.905 70.826c0 4.895-3.447 8.632-8.921 8.632H39.8V62.3h7.158c5.5 0 8.947 3.579 8.947 8.526zm-9.421 3.842c2.368 0 3.947-1.342 3.947-3.842s-1.579-3.842-3.947-3.842h-1.289v7.658z" transform="translate(-29.326 -45.905)" style="fill:#00b3e3"/></g></svg><svg width="20" height="19" viewBox="-1 -1 20 19" id="download-icon" x="20.04" y="246" xmlns="http://www.w3.org/2000/svg"><g stroke="#1E1EF0" stroke-width="1.5" fill="none" fill-rule="evenodd"><path d="M17 10.667v3.555c0 .982-.796 1.778-1.778 1.778H2.778A1.778 1.778 0 0 1 1 14.222v-3.555M4.556 6.222 9 10.667l4.444-4.445M9 10.667V0"/></g></svg><svg width="22" height="22" viewBox="-1 -1 22 22" id="download-white-icon" x="252.13" y="86" xmlns="http://www.w3.org/2000/svg"><g style="fill:none;stroke-linejoin:round"><g style="stroke-width:2;stroke:#fdfefe"><path d="M19 13v4c0 1.1-.9 2-2 2H3c-1.1 0-2-.9-2-2v-4M5 8l5 5 5-5M10 13V1"/></g></g></svg><svg viewBox="-1 -1 26 26" fill="none" width="26" height="26" id="duration-icon" x="198.13" y="131" xmlns="http://www.w3.org/2000/svg"><path d="M12 22c5.523 0 10-4.477 10-10S17.523 2 12 2 2 6.477 2 12s4.477 10 10 10Z" stroke="#2E3237" stroke-width="1.5" stroke-linecap="round" stroke-linejoin="round"/><path d="M12 6v6l4 2" stroke="#2E3237" stroke-width="1.5" stroke-linecap="round" stroke-linejoin="round"/></svg><svg viewBox="-1 -1 18.5 18.5" width="18.5" height="18.5" id="edit-form" x="275.13" y="152" xmlns="http://www.w3.org/2000/svg"><g data-name="Layer 2"><g data-name="Layer 1"><path d="m13.75.75-7 7-2 3.5.5.5 3.5-2 7-7Z" style="fill:none;stroke:#1e1ef0;stroke-linejoin:round;stroke-width:1.5px"/><path d="M12.75 9.75v5a1 1 0 0 1-1 1h-10a1 1 0 0 1-1-1v-10a1 1 0 0 1 1-1h5" style="stroke-linecap:round;fill:none;stroke:#1e1ef0;stroke-linejoin:round;stroke-width:1.5px"/></g></g></svg><svg width="24" height="20" viewBox="-1 -1 24 20" id="envelope-blue" x="112" y="92" xmlns="http://www.w3.org/2000/svg"><g fill="none" fill-rule="evenodd" stroke="#1E1EF0" stroke-linecap="round" stroke-linejoin="round" stroke-width="1.5"><path d="M3 1h16c1.1 0 2 .9 2 2v12c0 1.1-.9 2-2 2H3c-1.1 0-2-.9-2-2V3c0-1.1.9-2 2-2z"/><path d="m21 3-10 7L1 3"/></g></svg><svg viewBox="-1 -1 21 17" style="enable-background:new 0 0 19 15" xml:space="preserve" width="21" height="17" id="external-site-link-blue" x="252.13" y="194" xmlns="http://www.w3.org/2000/svg"><path d="m12.3 1.7 5.2 4.4v.1l-5.2 4.4V8.4c0-.5-.4-.9-.9-.9H9.7c-2.6 0-4.5.5-5.8 2.4C4.5 6.5 6.7 5 10.6 5h.9c.5 0 .9-.4.9-.9V1.7M12.3.6h-.9V4h-.9c-5.2 0-7.8 2.6-7.8 8.6h.9c.9-3.4 2.6-4.3 6-4.3h1.7v3.4h.9l6-5.2v-.8L12.3.6z" style="fill:#1e1ef0"/><path d="M9.7 1H1.5c-.4 0-.8.4-.8.9v11.2c0 .5.4.9.9.9h13.8c.5 0 .9-.4.9-.9v-2.2" style="fill:none;stroke:#1e1ef0;stroke-linecap:round;stroke-linejoin:round"/></svg><svg viewBox="-1 -1 21 17" style="enable-background:new 0 0 19 15" xml:space="preserve" width="21" height="17" id="external-site-link-blue-dark" x="252.13" y="211" xmlns="http://www.w3.org/2000/svg"><path d="m12.3 1.7 5.2 4.4v.1l-5.2 4.4V8.4c0-.5-.4-.9-.9-.9H9.7c-2.6 0-4.5.5-5.8 2.4C4.5 6.5 6.7 5 10.6 5h.9c.5 0 .9-.4.9-.9V1.7M12.3.6h-.9V4h-.9c-5.2 0-7.8 2.6-7.8 8.6h.9c.9-3.4 2.6-4.3 6-4.3h1.7v3.4h.9l6-5.2v-.8L12.3.6z" style="fill:#081351"/><path d="M9.7 1H1.5c-.4 0-.8.4-.8.9v11.2c0 .5.4.9.9.9h13.8c.5 0 .9-.4.9-.9v-2.2" style="fill:none;stroke:#081351;stroke-linecap:round;stroke-linejoin:round"/></svg><svg width="20.73" height="15.97" viewBox="-1 -1 20.73 15.97" id="eye-small" x="252.13" y="228" xmlns="http://www.w3.org/2000/svg"><g transform="matrix(.81433 0 0 .82163 .407 .41)" style="fill:none;fill-rule:evenodd;stroke:#1e1ef0;stroke-width:1;stroke-linecap:round;stroke-linejoin:round"><path d="M0 8s4-8 11-8 11 8 11 8-4 8-11 8S0 8 0 8Z"/><circle cx="11" cy="7" r="3"/></g></svg><svg viewBox="-1 -1 52 52" width="52" height="52" id="facebook-footer-logo" x="60" y="60" xmlns="http://www.w3.org/2000/svg"><path d="m28.799 25.591.469-3.634h-3.599v-2.32c0-1.052.292-1.769 1.801-1.769l1.925-.001v-3.251a25.825 25.825 0 0 0-2.804-.143c-2.775 0-4.674 1.694-4.674 4.804v2.68h-3.138v3.634h3.138v9.326h3.753v-9.326h3.129z" fill="#CCC"/></svg><svg width="20.04" height="20" style="enable-background:new 0 0 30 30;version:1.1" viewBox="-1 -1 20.04 20" id="feedback-white" y="246" xmlns="http://www.w3.org/2000/svg"><path transform="matrix(.62338 0 0 .62338 -.403 -.234)" style="fill:none;stroke-linejoin:round;stroke-miterlimit:10;stroke-width:2;stroke:#fff" d="M23.521 21.875h5.312V1.125H1.396V21.75h10.562v6.75z"/></svg><svg width="24" height="21" viewBox="-1 -1 24 21" id="filter-blue-small" x="130" y="220" xmlns="http://www.w3.org/2000/svg"><path d="M3.705 17.517v-6.423m0-3.671V1m7.212 16.517V9.259m0-3.671V1m7.213 16.517v-4.588m0-3.67V1M1 11.094h5.41m1.803-5.506h5.41m1.802 7.341h5.41" stroke="#081351" stroke-width="1.5" fill="none" fill-rule="evenodd" stroke-linecap="round" stroke-linejoin="round"/></svg><svg width="15" height="18" viewBox="-1 -1 15 18" id="flag-grey-icon" x="275.13" y="170.5" xmlns="http://www.w3.org/2000/svg"><g stroke="#8FA2BF" fill="none" fill-rule="evenodd" stroke-linecap="round" stroke-linejoin="round"><path d="M.706 10.083s.706-.706 2.823-.706c2.118 0 3.53 1.412 5.647 1.412 2.118 0 2.824-.706 2.824-.706v-8.47s-.706.706-2.824.706C7.06 2.319 5.647.907 3.53.907c-2.117 0-2.823.706-2.823.706v8.47ZM.706 15.025v-4.942"/></g></svg><svg width="22" height="21" viewBox="-1 -1 22 21" id="heart-active" x="252.13" y="108" xmlns="http://www.w3.org/2000/svg"><path fill="#50B446" fill-rule="evenodd" stroke="#50B446" stroke-width="1.5" d="M1.597 9.747c-1.513-3.755.066-7.049 2.32-8.241C5.548.639 7.935.694 10 3.208 12.064.694 14.452.64 16.085 1.506c2.253 1.192 3.83 4.486 2.318 8.241-.791 1.963-5.148 8.18-8.39 8.245-3.266-.065-7.624-6.281-8.416-8.245z"/></svg><svg width="22" height="21" viewBox="-1 -1 22 21" id="heart-blue" x="252.13" y="129" xmlns="http://www.w3.org/2000/svg"><path fill="none" stroke="#1E1EF0" stroke-width="1.5" d="M1.597 9.747c-1.513-3.755.066-7.049 2.32-8.241C5.548.639 7.935.694 10 3.208 12.064.694 14.452.64 16.085 1.506c2.253 1.192 3.83 4.486 2.318 8.241-.791 1.963-5.148 8.18-8.39 8.245-3.266-.065-7.624-6.281-8.416-8.245z"/></svg><svg width="26" height="26" fill="none" viewBox="-1 -1 26 26" id="icon-compare" x="198.13" y="157" xmlns="http://www.w3.org/2000/svg"><path d="M2.5 6H11V2.5a1 1 0 0 1 1-1h9.5a1 1 0 0 1 1 1V17a1 1 0 0 1-1 1H13v3.5a1 1 0 0 1-1 1H2.5a1 1 0 0 1-1-1V7a1 1 0 0 1 1-1Z" fill="#fff"/><path d="M11 6H2.5a1 1 0 0 0-1 1v14.5a1 1 0 0 0 1 1H12a1 1 0 0 0 1-1V18M11 6V2.5a1 1 0 0 1 1-1h9.5a1 1 0 0 1 1 1V17a1 1 0 0 1-1 1H13M11 6h1a1 1 0 0 1 1 1v11" stroke="#0F151A" stroke-width="1.5"/><path d="M10.354 14.653a.5.5 0 0 0 0-.707l-3.182-3.182a.5.5 0 1 0-.708.707L9.293 14.3l-2.829 2.828a.5.5 0 1 0 .708.707l3.182-3.182ZM2 14.8h8v-1H2v1ZM15.167 9.296a.5.5 0 0 0 0 .708l3.182 3.181a.5.5 0 1 0 .707-.707L16.227 9.65l2.829-2.829a.5.5 0 1 0-.707-.707l-3.182 3.182Zm6.853-.146h-6.5v1h6.5v-1Z" fill="#0F151A"/></svg><svg viewBox="-1 -1 27 26" fill="none" width="27" height="26" id="in-company-icon" x="198.13" y="27" xmlns="http://www.w3.org/2000/svg"><path d="M9.85 4.886c0-.965-.785-1.75-1.75-1.75s-1.75.785-1.75 1.75.785 1.75 1.75 1.75 1.75-.785 1.75-1.75Zm-2.526 0a.777.777 0 0 1 1.553 0 .777.777 0 0 1-1.553 0Z" fill="#21272B"/><path d="M16.235 7.917a.5.5 0 0 0-.5-.5H12.5c.48-.878.55-1.749.55-2.483A4.94 4.94 0 0 0 8.117 0a4.939 4.939 0 0 0-4.933 4.934c0 .734-.028 1.605.452 2.483H.5a.5.5 0 0 0-.5.5V23.5a.5.5 0 0 0 .5.5h21.114a2.974 2.974 0 0 0 2.97-2.97v-8.91a.5.5 0 0 0-.5-.5l-7.85-.002V7.917ZM8.117 1.5a3.436 3.436 0 0 1 3.432 3.433C11.5 7.5 9.624 8.807 8.117 10.484 6.611 8.806 4.685 8 4.685 4.933A3.436 3.436 0 0 1 8.117 1.5ZM14.734 22a.5.5 0 0 1-.5.5H2.001a.5.5 0 0 1-.5-.5V9.417a.5.5 0 0 1 .5-.5h2.834L4 8.5c1.138 1.65 3.325 3.345 3.577 3.606l.18.188a.5.5 0 0 0 .72 0l.181-.188C8.91 11.844 10.862 10.15 12 8.5l-.602.417h2.836a.5.5 0 0 1 .5.5V22Zm8.35-8.88v7.91c0 .81-.659 1.47-1.47 1.47h-4.88a.5.5 0 0 1-.5-.5v-8.88h6.85Z" fill="#21272B"/><path d="M6.265 18.268h-.9a.3.3 0 0 0-.3.3v2.163a.3.3 0 0 0 .3.3h.9a.3.3 0 0 0 .3-.3v-2.163a.3.3 0 0 0-.3-.3Zm0-5.525h-.9a.3.3 0 0 0-.3.3v2.163a.3.3 0 0 0 .3.3h.9a.3.3 0 0 0 .3-.3v-2.163a.3.3 0 0 0-.3-.3Zm4.605 5.525h-.901a.3.3 0 0 0-.3.3v2.163a.3.3 0 0 0 .3.3h.9a.3.3 0 0 0 .3-.3v-2.163a.3.3 0 0 0-.3-.3Zm0-5.525h-.901a.3.3 0 0 0-.3.3v2.163a.3.3 0 0 0 .3.3h.9a.3.3 0 0 0 .3-.3v-2.163a.3.3 0 0 0-.3-.3Zm10.01 2.441h-2.333a.3.3 0 0 0-.3.3v.9a.3.3 0 0 0 .3.3h2.334a.3.3 0 0 0 .3-.3v-.9a.3.3 0 0 0-.3-.3Zm0 3.682h-2.333a.3.3 0 0 0-.3.3v.9a.3.3 0 0 0 .3.3h2.334a.3.3 0 0 0 .3-.3v-.9a.3.3 0 0 0-.3-.3Z" fill="#21272B"/></svg><svg viewBox="-1 -1 16 16" style="enable-background:new 0 0 14 14" xml:space="preserve" width="16" height="16" id="info-inverse" x="56.04" y="246" xmlns="http://www.w3.org/2000/svg"><path d="M7 0C3.1 0 0 3.1 0 7s3.1 7 7 7 7-3.1 7-7-3.1-7-7-7zm.8 10.2c0 .4-.4.8-.8.8s-.8-.4-.8-.8V7c0-.4.4-.8.8-.8s.8.4.8.8v3.2zM7 4.8c-.6 0-1-.4-1-1s.4-1 1-1 1 .4 1 1-.4 1-1 1z" style="fill:#fff"/></svg><svg viewBox="-1 -1 17 20" width="17" height="20" id="location" x="208" y="194" xmlns="http://www.w3.org/2000/svg"><path d="M7 17.5S1.5 12 1.5 6.91C1.5 3.66 3.55.5 7.5.5s6 3 6 6.41C13.5 12 8 17.5 8 17.5Z" style="stroke-width:.95px;fill:none;stroke:#333;stroke-miterlimit:10"/><circle cx="7.5" cy="6.5" r="3" style="stroke-width:1.14px;fill:none;stroke:#333;stroke-miterlimit:10"/></svg><svg width="19" height="18" viewBox="-1 -1 19 18" id="login-details-icon" x="275.13" y="115" xmlns="http://www.w3.org/2000/svg"><path d="m15.476 0-1.524 1.6M8.154 7.688c1.07 1.109 1.493 2.735 1.107 4.261-.386 1.526-1.52 2.718-2.974 3.124-1.454.405-3.003-.039-4.059-1.163C.64 12.184.663 9.44 2.28 7.742c1.617-1.697 4.23-1.72 5.875-.053v-.001Zm0 0L11.286 4.4m0 0 2.285 2.4L16.238 4l-2.286-2.4m-2.666 2.8 2.666-2.8" stroke="#1E1EF0" stroke-width="1.5" fill="none" fill-rule="evenodd"/></svg><svg viewBox="-1 -1 102 82" width="42" height="42" id="menu-icon" y="114"><rect width="100" height="15" rx="0" fill="#081351"/><rect y="25" width="100" height="15" rx="0" fill="#081351"/><rect y="50" width="100" height="15" rx="0" fill="#081351"/></svg><svg x="38" y="156" width="32" height="32" viewBox="-2 -2 26 22" id="on-demand-blue-dark" xmlns="http://www.w3.org/2000/svg"><g fill="none" fill-rule="evenodd" stroke="#081351" stroke-linecap="round" stroke-linejoin="round" stroke-width="1.2" transform="translate(-1.123 -2.953)"><path d="M6.615 4.462v8.64l6.463-4.32z"/><circle cx="8.951" cy="8.781" r="8.028"/></g></svg><svg viewBox="-1 -1 26 26" fill="none" width="26" height="26" id="online-icon" y="194" xmlns="http://www.w3.org/2000/svg"><g clip-path="url(#cla)"><path d="M22.688-.25H1.313A1.562 1.562 0 0 0-.25 1.313v15.374a1.563 1.563 0 0 0 1.563 1.563h6.875v4.375h-2.75a.812.812 0 1 0 0 1.625h13.125a.812.812 0 1 0 0-1.625h-2.75V18.25h6.874a1.563 1.563 0 0 0 1.563-1.563V1.313A1.563 1.563 0 0 0 22.687-.25ZM1.375 1.375h21.25v12.063H1.375V1.374Zm12.813 21.25H9.811V18.25h4.376v4.375Zm8.437-6H1.375v-1.563h21.25v1.563Z" fill="#2E3237" stroke="#21272B" stroke-width=".1"/></g><defs><clipPath id="cla"><path fill="#fff" d="M0 0h24v24H0z"/></clipPath></defs></svg><svg viewBox="-1 -1 19 19" style="enable-background:new 0 0 17 17" xml:space="preserve" width="19" height="19" id="person" x="275.13" y="133" xmlns="http://www.w3.org/2000/svg"><path d="M8.6.9c2.7 0 3.5 1.7 3.5 4 0 1.8-.3 3.3-2 4v1c0 2.2 5 1.8 5 5 0 1-4.2 1.2-6.5 1.2s-6.5-.2-6.5-1.4c0-3.2 5-2.6 5-4.8v-1c-1.7-.6-2.1-2.2-2-4 0-2.3.7-4 3.5-4z" style="fill:none;stroke:#222e3a;stroke-linejoin:round"/></svg><svg viewBox="-1 -1 20 20" width="20" height="20" id="phone" x="275.13" xmlns="http://www.w3.org/2000/svg"><path d="M13.5 10.5c-1.5 0-1.85 2-2.91 2S8.07 11.07 7 10 5.25 8.45 5.25 7.39s1.18-.83 2.25-1.9-1.5-4-3.31-4a3.22 3.22 0 0 0-2.68 3C1.5 7 2 9 5 12s5.55 4.5 8 4.5 3.5-1.13 3.5-2c0-1.75-1.5-4-3-4Z" style="fill:none;stroke:#333;stroke-linecap:round;stroke-width:1;stroke-linejoin:round"/></svg><svg viewBox="-1 -1 20 20" width="20" height="20" id="phone-blue" x="275.13" y="20" xmlns="http://www.w3.org/2000/svg"><path d="M13.5 10.5c-1.5 0-1.85 2-2.91 2S8.07 11.07 7 10 5.25 8.45 5.25 7.39s1.18-.83 2.25-1.9-1.5-4-3.31-4a3.22 3.22 0 0 0-2.68 3C1.5 7 2 9 5 12s5.55 4.5 8 4.5 3.5-1.13 3.5-2c0-1.75-1.5-4-3-4Z" style="fill:none;stroke:#1e1ef0;stroke-linecap:round;stroke-width:1.5;stroke-linejoin:round"/></svg><svg width="146.13" height="30" viewBox="-1 -1 146.13 30" id="reed-courses" xmlns="http://www.w3.org/2000/svg"><path d="M75.765 12.262c-.438 3.844-3.223 6.237-7.227 6.237-4.833 0-7.918-3.59-7.918-9.16 0-5.432 3.177-9.022 7.987-9.022 3.912 0 6.835 2.486 7.158 6.145H73.21c-.391-2.67-2.071-4.166-4.626-4.166-3.268 0-5.455 2.831-5.455 7.02 0 4.35 2.118 7.158 5.409 7.158 2.531 0 4.258-1.565 4.672-4.212zm12.895-.506c0 4.028-2.417 6.674-6.1 6.674-3.612 0-6.052-2.693-6.052-6.697 0-3.959 2.44-6.583 6.122-6.583 3.59 0 6.03 2.67 6.03 6.606zm-9.804-.092c0 3.06 1.38 4.948 3.659 4.948 2.302 0 3.797-1.887 3.797-4.81 0-2.97-1.473-4.856-3.774-4.856-2.279 0-3.682 1.795-3.682 4.718zm19.387 4.902c-.621 1.105-2.071 1.795-3.774 1.795-1.75 0-3.13-.69-3.867-1.91-.483-.806-.621-1.68-.621-3.775V5.518h2.163v7.55c0 2.37.875 3.475 2.716 3.475a3.275 3.275 0 0 0 2.83-1.496c.37-.598.461-1.312.461-3.521V5.518h2.164v12.544h-2.072zm5.993-11.048v1.865c1.174-1.588 2.187-2.164 3.867-2.164a4.649 4.649 0 0 1 1.197.161v1.957a2.517 2.517 0 0 0-1.312-.323 3.555 3.555 0 0 0-3.176 1.91c-.3.6-.46 1.727-.46 3.177v5.961h-2.164V5.518Zm7.654 8.355c0 1.772 1.152 2.739 3.223 2.739 1.726 0 2.785-.736 2.785-1.887a1.476 1.476 0 0 0-.737-1.29c-.529-.367-.874-.483-2.508-.782-1.473-.299-2.463-.621-3.107-.99a3.426 3.426 0 0 1-1.589-2.853c0-2.233 1.888-3.66 4.857-3.66 3.176 0 5.04 1.565 5.155 4.327h-2.163c-.046-1.634-1.105-2.531-3.015-2.531-1.52 0-2.532.69-2.532 1.726 0 1.104.737 1.565 3.475 2.094 3.176.644 4.488 1.75 4.488 3.798 0 2.301-2.048 3.866-5.017 3.866-3.452 0-5.5-1.68-5.524-4.557zm11.317-1.45c.07 1.036.184 1.565.53 2.21a4.013 4.013 0 0 0 3.452 1.979c1.703 0 2.808-.828 3.291-2.417h2.348c-.599 2.693-2.647 4.235-5.685 4.235-3.775 0-6.191-2.6-6.191-6.651 0-3.982 2.393-6.629 5.984-6.629 3.797 0 5.892 2.578 5.892 7.273zm6.767-3.867a3.53 3.53 0 0 0-3.015-1.61c-2.118 0-3.43 1.334-3.706 3.728h7.32c-.139-1.082-.277-1.588-.6-2.118zm5.82 5.317c0 1.772 1.15 2.739 3.222 2.739 1.726 0 2.785-.736 2.785-1.887a1.476 1.476 0 0 0-.737-1.29c-.529-.367-.874-.483-2.508-.782-1.473-.299-2.463-.621-3.107-.99a3.426 3.426 0 0 1-1.588-2.853c0-2.233 1.887-3.66 4.856-3.66 3.176 0 5.04 1.565 5.156 4.327h-2.164c-.046-1.634-1.105-2.531-3.015-2.531-1.52 0-2.532.69-2.532 1.726 0 1.104.737 1.565 3.476 2.094 3.176.644 4.488 1.75 4.488 3.798 0 2.301-2.049 3.866-5.018 3.866-3.452 0-5.5-1.68-5.523-4.557z" style="fill:#50b446"/><path d="M51.071 18.062h3.61V0l-3.61.757V6.75c-.872-.776-2.038-1.235-3.506-1.235a6.367 6.367 0 0 0 0 12.733c1.47 0 2.636-.456 3.506-1.228zm-3.05-3.072a3.108 3.108 0 1 1 3.068-3.108 3.103 3.103 0 0 1-3.069 3.108M13.12 5.8c0-3.263-2.717-5.043-5.924-5.043H0v17.305h4.335v-7.22h.52l3.815 7.22h4.623l-4.161-7.491c2.254-.569 3.988-2.225 3.988-4.771m-6.3 1.96H4.335V3.84H6.82c1.33 0 1.994.714 1.994 1.96 0 1.247-.665 1.962-1.994 1.962m12.892-2.21c-3.634 0-6.304 2.77-6.304 6.354 0 3.535 2.695 6.303 6.428 6.303 2.941 0 5.29-1.592 6.007-4.138h-3.906c-.346.766-1.211 1.102-2.126 1.102-1.533 0-2.546-1.166-2.695-2.544h8.826a7.664 7.664 0 0 0 .049-.872 6.188 6.188 0 0 0-6.28-6.205M17.24 10.49c.297-1.279 1.31-2.088 2.472-2.088 1.211 0 2.15.859 2.447 2.088zm16.423-4.938c-3.634 0-6.304 2.77-6.304 6.354 0 3.535 2.695 6.303 6.428 6.303 2.942 0 5.29-1.592 6.007-4.138h-3.906c-.346.766-1.211 1.102-2.126 1.102-1.533 0-2.546-1.166-2.694-2.544h8.825a7.664 7.664 0 0 0 .05-.872 6.188 6.188 0 0 0-6.28-6.205m-2.472 4.938c.297-1.279 1.31-2.088 2.472-2.088 1.211 0 2.15.859 2.447 2.088zm2.726 11.57a2.97 2.97 0 1 0 2.97 2.97 2.97 2.97 0 0 0-2.97-2.97m9.148 0a2.97 2.97 0 1 0 2.97 2.97 2.97 2.97 0 0 0-2.97-2.97m9.148 0a2.97 2.97 0 1 0 2.97 2.97 2.97 2.97 0 0 0-2.97-2.97" style="fill:#081351"/></svg><svg id="reed-courses-rainbow" width="144.63" height="30" version="1.1" viewBox="-1 -1 144.63 30" y="30" xmlns="http://www.w3.org/2000/svg"><defs id="cpdefs59"><style id="cpstyle57">.cpcls-5{fill:#081351}.cpcls-7{fill:#50b446}</style></defs><g id="cpg73" transform="translate(-12.583 -12.657) scale(.19755)"><path id="cprect61" d="M63.692 175.731h165.834v5.012H63.692z" style="fill:#e32424"/><path id="cprect63" d="M63.692 180.742h165.834v5.012H63.692z" style="fill:#ff641e"/><path id="cprect65" d="M63.692 185.754h165.834v5.012H63.692z" style="fill:#ffb400"/><path id="cprect67" d="M63.692 190.766h165.834v5.012H63.692z" class="cpcls-7"/><path id="cprect69" d="M63.692 195.777h165.834v5.012H63.692z" style="fill:#1e1ef0"/><path id="cprect71" d="M63.692 200.789h165.834v5.012H63.692z" style="fill:#7855c3"/></g><g id="cpg107" transform="translate(-12.583 -12.657) scale(.19755)"><g id="cpg89"><path id="cppath75" d="M229.526 175.73c-8.304 0-15.035 6.732-15.035 15.036 0 8.303 6.731 15.034 15.035 15.034s15.034-6.73 15.034-15.034-6.73-15.035-15.034-15.035" class="cpcls-5"/><path id="cppath77" d="M274.894 175.73c-8.303 0-15.034 6.732-15.034 15.036 0 8.303 6.73 15.034 15.034 15.034s15.034-6.73 15.034-15.034-6.73-15.035-15.034-15.035" class="cpcls-5"/><path id="cppath79" d="M320.262 175.73c-8.303 0-15.034 6.732-15.034 15.036 0 8.303 6.73 15.034 15.034 15.034 8.305 0 15.035-6.73 15.035-15.034s-6.73-15.035-15.035-15.035" class="cpcls-5"/><path id="cppath81" d="M130.102 93.424c0-16.518-13.75-25.527-29.987-25.527H63.692v87.598h21.941v-36.544h2.633l19.309 36.544h23.405l-21.065-37.92c11.41-2.879 20.187-11.262 20.187-24.151m-31.889 9.134h-12.58V84.29h12.58c6.73 0 10.094 3.879 10.094 9.134 0 5.255-3.365 9.134-10.094 9.134" class="cpcls-5"/><path id="cppath83" d="M160.678 92.173c-18.394 0-31.908 14.015-31.908 32.159 0 17.894 13.639 31.908 32.534 31.908 14.89 0 26.778-8.259 30.407-21.147H171.94c-1.752 3.879-6.131 5.38-10.761 5.38-7.758 0-12.889-5.505-13.64-11.887h44.672c.125-1.501.25-3.378.25-5.005 0-15.766-12.263-31.408-31.783-31.408m-12.513 24.4c1.501-5.881 6.632-9.384 12.513-9.384 6.132 0 10.886 3.753 12.388 9.384z" class="cpcls-5"/><path id="cppath85" d="M240.162 135.093c-1.752 3.879-6.131 5.38-10.761 5.38-7.759 0-12.889-5.505-13.64-11.887h44.672c.126-1.501.25-3.378.25-5.005 0-15.766-12.262-31.408-31.783-31.408-18.394 0-31.908 14.015-31.908 32.159 0 17.894 13.639 31.908 32.534 31.908 14.891 0 26.778-8.258 30.407-21.147h-19.77zM228.9 107.189c6.132 0 10.887 3.754 12.388 9.384h-24.901c1.502-5.881 6.632-9.384 12.513-9.384" class="cpcls-5"/><path id="cppath87" d="M314.62 155.495h18.269V64.067l-18.269 3.83V97.84c-4.88-3.685-10.943-5.855-17.746-5.855-17.569 0-31.811 14.428-31.811 32.226s14.242 32.226 31.811 32.226c6.803 0 12.865-2.171 17.746-5.855v4.913zm-15.444-15.75c-8.58 0-15.535-6.955-15.535-15.534 0-8.58 6.955-15.536 15.535-15.536s15.536 6.955 15.536 15.536c0 8.58-6.956 15.535-15.536 15.535" class="cpcls-5"/></g><g id="cpg105"><path id="cppath91" d="M439.616 126.136c-2.214 19.457-16.31 31.573-36.582 31.573-24.465 0-40.077-18.175-40.077-46.369 0-27.494 16.078-45.668 40.426-45.668 19.806 0 34.602 12.582 36.233 31.106h-12.932c-1.98-13.514-10.485-21.086-23.417-21.086-16.543 0-27.61 14.329-27.61 35.532 0 22.019 10.717 36.233 27.377 36.233 12.815 0 21.552-7.923 23.65-21.32z" class="cpcls-7"/><path id="cppath93" d="M504.89 123.574c0 20.388-12.232 33.785-30.873 33.785-18.29 0-30.64-13.63-30.64-33.903 0-20.038 12.35-33.319 30.99-33.319 18.174 0 30.523 13.515 30.523 33.437zm-49.629-.467c0 15.495 6.99 25.048 18.524 25.048 11.65 0 19.222-9.553 19.222-24.349 0-15.028-7.456-24.581-19.106-24.581-11.533 0-18.64 9.087-18.64 23.882z" class="cpcls-7"/><path id="cppath95" d="M553.4 147.923c-3.146 5.592-10.485 9.087-19.107 9.087-8.854 0-15.844-3.495-19.572-9.67-2.446-4.077-3.145-8.504-3.145-19.106V92h10.95v38.213c0 12 4.428 17.592 13.748 17.592 6.057 0 11.3-2.796 14.329-7.573 1.864-3.029 2.33-6.64 2.33-17.824V92h10.951v63.494H553.4v-7.572z" class="cpcls-7"/><path id="cppath97" d="M583.734 92.001v9.437c5.942-8.038 11.068-10.951 19.572-10.951 2.214 0 3.495.233 6.059.815v9.903c-2.564-1.282-4.078-1.631-6.64-1.631-6.875 0-13.166 3.844-16.078 9.67-1.515 3.029-2.33 8.737-2.33 16.077v30.174h-10.951V92.001Z" class="cpcls-7"/><path id="cppath99" d="M622.48 134.291c0 8.972 5.826 13.864 16.311 13.864 8.738 0 14.097-3.727 14.097-9.553 0-2.68-1.281-5.01-3.728-6.524-2.68-1.864-4.427-2.447-12.699-3.961-7.456-1.515-12.465-3.146-15.727-5.01-4.777-2.796-8.04-8.737-8.04-14.445 0-11.301 9.555-18.525 24.583-18.525 16.077 0 25.513 7.923 26.096 21.902h-10.95c-.234-8.271-5.593-12.814-15.262-12.814-7.69 0-12.816 3.495-12.816 8.737 0 5.592 3.729 7.922 17.592 10.602 16.077 3.262 22.718 8.853 22.718 19.223 0 11.65-10.37 19.572-25.398 19.572-17.474 0-27.843-8.505-27.96-23.068z" class="cpcls-7"/><path id="cppath101" d="M679.763 126.952c.35 5.243.933 7.921 2.68 11.185 3.263 5.941 10.252 10.018 17.475 10.018 8.622 0 14.213-4.193 16.66-12.232h11.883c-3.029 13.63-13.398 21.436-28.776 21.436-19.105 0-31.339-13.165-31.339-33.67 0-20.153 12.116-33.552 30.291-33.552 19.223 0 29.824 13.049 29.824 36.815h-48.698Zm34.252-19.573c-3.03-5.008-8.97-8.154-15.262-8.154-10.717 0-17.358 6.757-18.756 18.873h37.046c-.698-5.476-1.397-8.039-3.028-10.719z" class="cpcls-7"/><path id="cppath103" d="M743.476 134.291c0 8.972 5.825 13.864 16.31 13.864 8.738 0 14.097-3.727 14.097-9.553 0-2.68-1.281-5.01-3.728-6.524-2.679-1.864-4.427-2.447-12.698-3.961-7.457-1.515-12.466-3.146-15.728-5.01-4.776-2.796-8.04-8.737-8.04-14.445 0-11.301 9.555-18.525 24.583-18.525 16.077 0 25.514 7.923 26.097 21.902h-10.952c-.233-8.271-5.592-12.814-15.261-12.814-7.69 0-12.816 3.495-12.816 8.737 0 5.592 3.729 7.922 17.592 10.602 16.077 3.262 22.718 8.853 22.718 19.223 0 11.65-10.37 19.572-25.398 19.572-17.474 0-27.843-8.505-27.96-23.068z" class="cpcls-7"/></g></g></svg><svg width="21" height="22" viewBox="-1 -1 21 22" id="refund-grey-icon" x="252.13" y="150" xmlns="http://www.w3.org/2000/svg"><g fill="none" fill-rule="evenodd"><path d="m6.345 3.45.73-.224a8.308 8.308 0 1 1-5.82 6.931" stroke="#929292" stroke-linecap="round" stroke-linejoin="round"/><path d="M6.719.467 4.702 3.824l3.357 2.017" stroke-linecap="round" stroke-linejoin="round" stroke="#929292"/><text transform="translate(6 3)" fill="#929292" font-family="OpenSans-Bold, Open Sans" font-size="10" font-weight="bold">
                            <tspan x=".5" y="11.5">£</tspan>
                        </text></g></svg><svg width="21" height="22" viewBox="-1 -1 21 22" id="refund-icon" x="252.13" y="172" xmlns="http://www.w3.org/2000/svg"><g stroke-width="1.5" fill="none" fill-rule="evenodd"><path d="m6.345 3.45.73-.224a8.308 8.308 0 1 1-5.82 6.931" stroke="#1E1EF0" stroke-linecap="round" stroke-linejoin="round"/><path d="M6.719.467 4.702 3.824l3.357 2.017" stroke-linecap="round" stroke-linejoin="round" stroke="#1E1EF0"/><text transform="translate(6.5 2.5)" fill="#1E1EF0" font-family="Arial" font-size="10" font-weight="bold">
                        <tspan x=".231" y="11.719">£</tspan>
                    </text></g></svg><svg width="17" height="18" viewBox="-1 -1 17 18" id="savings-tag" x="275.13" y="188.5" xmlns="http://www.w3.org/2000/svg"><g fill="none" fill-rule="evenodd" transform="translate(1 1)"><path fill="#E32424" stroke="#E32424" stroke-linecap="round" stroke-linejoin="round" stroke-width="2" d="m12.606 7.907-4.862 4.862a1.356 1.356 0 0 1-1.92 0L0 6.95V.17h6.78l5.826 5.825a1.356 1.356 0 0 1 0 1.912z"/><circle cx="3" cy="3" r="1" fill="#FFF"/></g></svg><svg version="1.0" viewBox="-1 -1 30 31" xml:space="preserve" width="30" height="31" id="search" x="70" y="156" xmlns="http://www.w3.org/2000/svg"><g fill="none" stroke="#fff" stroke-miterlimit="10"><circle cx="12" cy="12" r="9" style="stroke-width:1.5px"/><path stroke-linecap="round" style="stroke-width:1.5px" d="M26 27.5 18 19"/></g></svg><svg width="28" height="27" viewBox="-1 -1 28 27" id="search-card--basket-icon" x="198.13" xmlns="http://www.w3.org/2000/svg"><g stroke="#081351" stroke-width="1.5" fill="none" fill-rule="evenodd"><path d="m22.74 13.4 1.13-3.58a.2.2 0 0 0-.2-.26H1.49a.2.2 0 0 0-.19.26l3.53 11.12c.04.13.15.21.28.21h9.18"/><path d="m6.8 9.56 5.66-7.76a.5.5 0 0 1 .82.02l4.99 7.74M17.03 20.1h8.25m-4.12-4.24v8.25"/></g></svg><svg width="20" height="17" viewBox="-1 -1 20 17" id="search-card--book-icon" x="275.13" y="40" xmlns="http://www.w3.org/2000/svg"><path d="M1 1h4.8C7.567 1 9 2.393 9 4.111V15c0-1.289-1.075-2.333-2.4-2.333H1V1zm16 0h-4.8C10.433 1 9 2.393 9 4.111V15c0-1.289 1.075-2.333 2.4-2.333H17V1z" fill="none" fill-rule="evenodd" stroke="#8388A7" stroke-linecap="round" stroke-linejoin="round"/></svg><svg viewBox="-1 -1 26 26" fill="none" width="26" height="26" id="search-card--certificate-icon" x="26" y="194" xmlns="http://www.w3.org/2000/svg"><path d="M22 13V6a2 2 0 0 0-2-2H4a2 2 0 0 0-2 2v12a2 2 0 0 0 2 2h11l7-7Z" stroke="#0F151A" stroke-width="1.5" stroke-linecap="round" stroke-linejoin="round"/><path d="M15 20h7v-7" stroke="#0F151A" stroke-width="1.5" stroke-linecap="round" stroke-linejoin="round"/><path d="M6 11a.5.5 0 0 0 0 1v-1Zm12 1a.5.5 0 0 0 0-1v1ZM6 12h12v-1H6v1ZM6 14a.5.5 0 0 0 0 1v-1Zm12 1a.5.5 0 0 0 0-1v1ZM6 15h12v-1H6v1Z" fill="#0F151A"/><path d="M15.138 17.523 14.543 22 17 20.526 19.457 22l-.595-4.482" fill="#fff"/><path d="M15.138 17.523 14.543 22 17 20.526 19.457 22l-.595-4.482" stroke="#0F151A" stroke-width=".983" stroke-linecap="round" stroke-linejoin="round"/><path d="M17 18.283a3.792 3.792 0 1 0 0-7.583 3.792 3.792 0 0 0 0 7.583Z" fill="#fff" stroke="#0F151A" stroke-width="1.083" stroke-linecap="round" stroke-linejoin="round"/><path d="M6 8a.5.5 0 0 0 0 1V8Zm12 1a.5.5 0 0 0 0-1v1ZM6 9h12V8H6v1Z" fill="#0F151A"/></svg><svg viewBox="-1 -1 26 26" fill="none" width="26" height="26" id="search-card--classroom-icon" x="52" y="194" xmlns="http://www.w3.org/2000/svg"><path d="M21 10c0 7-9 13-9 13s-9-6-9-13a9 9 0 1 1 18 0Z" stroke="#2E3237" stroke-width="1.5" stroke-linecap="round" stroke-linejoin="round"/><path d="M12 13a3 3 0 1 0 0-6 3 3 0 0 0 0 6Z" stroke="#2E3237" stroke-width="1.5" stroke-linecap="round" stroke-linejoin="round"/></svg><svg width="20" height="20" viewBox="-1 -1 20 20" id="search-card--clock-icon" x="275.13" y="57" xmlns="http://www.w3.org/2000/svg"><g fill="none" fill-rule="evenodd" stroke="#8388A7" stroke-linecap="round" stroke-linejoin="round" transform="translate(1 1)"><circle cx="8" cy="8" r="8"/><path d="M8 3.2V8l3.2 1.6"/></g></svg><svg width="26" height="26" fill="none" viewBox="-1 -1 26 26" id="search-card--compare-icon" x="78" y="194" xmlns="http://www.w3.org/2000/svg"><rect x="9.75" y="2.75" width="12.5" height="10.5" rx="1.25" fill="#fff" stroke="#000" stroke-width="1.5"/><path d="M13.752 8.247a.35.35 0 0 1 0-.494l2.228-2.228a.35.35 0 0 1 .495.495L14.495 8l1.98 1.98a.35.35 0 1 1-.495.495l-2.228-2.228ZM19 8.35h-5v-.7h5v.7Z" fill="#000"/><rect x="1.75" y="10.75" width="12.5" height="10.5" rx="1.25" fill="#fff" stroke="#000" stroke-width="1.5"/><path d="M10.248 16.247a.35.35 0 0 0 0-.495L8.02 13.525a.35.35 0 1 0-.495.495L9.505 16l-1.98 1.98a.35.35 0 0 0 .495.495l2.228-2.228ZM5 16.35h5v-.7H5v.7Z" fill="#000"/></svg><svg width="26" height="26" fill="none" viewBox="-1 -1 26 26" id="search-card--compare-icon-pressed" x="104" y="194" xmlns="http://www.w3.org/2000/svg"><rect x="9.75" y="2.75" width="12.5" height="10.5" rx="1.25" fill="#50B446" stroke="#B9E1B5" stroke-width="1.5"/><path d="M13.752 8.247a.35.35 0 0 1 0-.494l2.228-2.228a.35.35 0 0 1 .495.495L14.495 8l1.98 1.98a.35.35 0 1 1-.495.495l-2.228-2.228ZM19 8.35h-5v-.7h5v.7Z" fill="#B9E1B5"/><rect x="1.75" y="10.75" width="12.5" height="10.5" rx="1.25" fill="#50B446" stroke="#B9E1B5" stroke-width="1.5"/><path d="M10.248 16.247a.35.35 0 0 0 0-.495L8.02 13.525a.35.35 0 1 0-.495.495L9.505 16l-1.98 1.98a.35.35 0 0 0 .495.495l2.228-2.228ZM5 16.35h5v-.7H5v.7Z" fill="#B9E1B5"/></svg><svg viewBox="-1 -1 26 26" fill="none" width="26" height="26" id="search-card--cpd-icon" x="130" y="194" xmlns="http://www.w3.org/2000/svg"><path d="M12 15a7 7 0 1 0 0-14 7 7 0 0 0 0 14Z" stroke="#0F151A" stroke-width="1.5" stroke-linecap="round" stroke-linejoin="round"/><path d="M8.21 13.89 7 23l5-3 5 3-1.21-9.12" stroke="#0F151A" stroke-width="1.5" stroke-linecap="round" stroke-linejoin="round"/></svg><svg viewBox="-1 -1 38 38" fill="none" width="38" height="38" id="search-card--dots-icon" x="82" y="114" xmlns="http://www.w3.org/2000/svg"><circle cx="18" cy="18" r="18" fill="#FFF" fill-opacity=".8"/><circle cx="18" cy="10" r="2" fill="#0F151A"/><circle cx="18" cy="18" r="2" fill="#0F151A"/><circle cx="18" cy="26" r="2" fill="#0F151A"/></svg><svg width="38" height="38" fill="none" viewBox="-1 -1 38 38" id="search-card--dots-icon-active" x="120" y="114" xmlns="http://www.w3.org/2000/svg"><rect x=".1" y=".1" width="35.8" height="35.8" rx="17.9" fill="#F8F8F8" stroke="#C8C8C8" stroke-width=".2"/><circle cx="18" cy="10" r="2" fill="#0F151A"/><circle cx="18" cy="18" r="2" fill="#0F151A"/><circle cx="18" cy="26" r="2" fill="#0F151A"/></svg><svg width="38" height="38" fill="none" viewBox="-1 -1 38 38" id="search-card--dots-icon-hover" x="158" y="114" xmlns="http://www.w3.org/2000/svg"><rect width="36" height="36" rx="18" fill="#F8F8F8"/><circle cx="18" cy="10" r="2" fill="#0F151A"/><circle cx="18" cy="18" r="2" fill="#0F151A"/><circle cx="18" cy="26" r="2" fill="#0F151A"/></svg><svg width="38" height="38" fill="none" viewBox="-1 -1 38 38" id="search-card--dots-icon-pressed" y="156" xmlns="http://www.w3.org/2000/svg"><circle cx="18" cy="18" r="18" fill="#fff" fill-opacity=".8"/><circle cx="18" cy="18" r="17.5" stroke="#50B446"/><circle cx="18" cy="10" r="2" fill="#0F151A"/><circle cx="18" cy="18" r="2" fill="#0F151A"/><circle cx="18" cy="26" r="2" fill="#0F151A"/><circle cx="30" cy="6" r="6" fill="#50B446"/></svg><svg width="24" height="20" viewBox="-1 -1 24 20" id="search-card--envelope-icon" x="154" y="220" xmlns="http://www.w3.org/2000/svg"><g fill="none" fill-rule="evenodd" stroke="#081351" stroke-linecap="round" stroke-linejoin="round" stroke-width="1.5"><path d="M3 1h16c1.1 0 2 .9 2 2v12c0 1.1-.9 2-2 2H3c-1.1 0-2-.9-2-2V3c0-1.1.9-2 2-2z"/><path d="m21 3-10 7L1 3"/></g></svg><svg viewBox="-1 -1 26 26" fill="none" width="26" height="26" id="search-card--exam-icon" x="156" y="194" xmlns="http://www.w3.org/2000/svg"><path d="M17.25 1.5H6.75A2.25 2.25 0 0 0 4.5 3.75v16.5a2.25 2.25 0 0 0 2.25 2.25h10.5a2.25 2.25 0 0 0 2.25-2.25V3.75a2.25 2.25 0 0 0-2.25-2.25ZM18 20.25a.75.75 0 0 1-.75.75H6.75a.75.75 0 0 1-.75-.75V3.75A.75.75 0 0 1 6.75 3h10.5a.75.75 0 0 1 .75.75v16.5Z" fill="#0F151A"/><path d="M9.458 11.19a.75.75 0 0 0 .982-.398l.45-1.042h2.25l.45 1.042a.75.75 0 0 0 .66.458.75.75 0 0 0 .69-1.043l-2.25-5.25A.667.667 0 0 0 12 4.5a.683.683 0 0 0-.69.457l-2.25 5.25a.75.75 0 0 0 .398.983Zm2.07-2.94L12 7.155l.473 1.095h-.945ZM7.5 16.5H12a.75.75 0 1 0 0-1.5H7.5a.75.75 0 1 0 0 1.5Zm8.25 1.5H7.5a.75.75 0 1 0 0 1.5h8.25a.75.75 0 1 0 0-1.5Z" fill="#0F151A"/></svg><svg width="26" height="26" fill="none" viewBox="-1 -1 26 26" id="search-card--finance-available-pound-icon" x="182" y="194" xmlns="http://www.w3.org/2000/svg"><path d="M12 0C5.373 0 0 5.373 0 12s5.373 12 12 12 12-5.373 12-12S18.627 0 12 0Zm0 22.5C6.498 22.5 1.5 17.502 1.5 12S6.498 1.5 12 1.5 22.5 6.498 22.5 12 17.502 22.5 12 22.5Zm3.696-6.155H10.87v-.126c.734-.461 1.176-1.35 1.176-2.44 0-.378-.06-.748-.142-1.099h2.64a.215.215 0 0 0 .215-.214v-.803a.215.215 0 0 0-.214-.215h-3c-.193-.605-.36-1.224-.36-1.888 0-1.165.911-1.88 2.34-1.88.575 0 1.137.11 1.617.28.14.052.284-.053.284-.203V6.7a.217.217 0 0 0-.14-.2 5.41 5.41 0 0 0-1.882-.341c-2.489 0-4.058 1.192-4.058 3.222 0 .705.184 1.393.39 2.065H8.305a.215.215 0 0 0-.215.215v.803c0 .118.097.215.215.215H10.1c.091.393.158.787.158 1.184 0 1.21-.771 2.23-1.95 2.523a.215.215 0 0 0-.163.209v1.031c0 .118.096.214.214.214h7.336a.215.215 0 0 0 .215-.214v-1.066a.215.215 0 0 0-.215-.214Z" fill="#0F151A"/></svg><svg viewBox="-1 -1 26 26" fill="none" width="26" height="26" id="search-card--job-guarantee-icon" x="226.13" xmlns="http://www.w3.org/2000/svg"><path d="M20 7H4a2 2 0 0 0-2 2v10a2 2 0 0 0 2 2h16a2 2 0 0 0 2-2V9a2 2 0 0 0-2-2Z" stroke="#0F151A" stroke-width="1.5" stroke-linecap="round" stroke-linejoin="round"/><path d="M16 21V5a2 2 0 0 0-2-2h-4a2 2 0 0 0-2 2v16" stroke="#0F151A" stroke-width="1.5" stroke-linecap="round" stroke-linejoin="round"/></svg><svg viewBox="-1 -1 26 26" fill="none" width="26" height="26" id="search-card--online-icon" x="226.13" y="26" xmlns="http://www.w3.org/2000/svg"><g clip-path="url(#dsa)"><path d="M22.688-.25H1.313A1.562 1.562 0 0 0-.25 1.313v15.374a1.563 1.563 0 0 0 1.563 1.563h6.875v4.375h-2.75a.812.812 0 1 0 0 1.625h13.125a.812.812 0 1 0 0-1.625h-2.75V18.25h6.874a1.563 1.563 0 0 0 1.563-1.563V1.313A1.563 1.563 0 0 0 22.687-.25ZM1.375 1.375h21.25v12.063H1.375V1.374Zm12.813 21.25H9.811V18.25h4.376v4.375Zm8.437-6H1.375v-1.563h21.25v1.563Z" fill="#2E3237" stroke="#21272B" stroke-width=".1"/></g><defs><clipPath id="dsa"><path fill="#fff" d="M0 0h24v24H0z"/></clipPath></defs></svg><svg viewBox="-1 -1 26 26" fill="none" width="26" height="26" id="search-card--professional-certification-icon" x="226.13" y="52" xmlns="http://www.w3.org/2000/svg"><path d="M16 4h2a2 2 0 0 1 2 2v14a2 2 0 0 1-2 2H6a2 2 0 0 1-2-2V6a2 2 0 0 1 2-2h2" stroke="#0F151A" stroke-width="1.5" stroke-linecap="round" stroke-linejoin="round"/><path d="M15 2H9a1 1 0 0 0-1 1v2a1 1 0 0 0 1 1h6a1 1 0 0 0 1-1V3a1 1 0 0 0-1-1Z" stroke="#0F151A" stroke-width="1.5" stroke-linecap="round" stroke-linejoin="round"/><path d="M10.138 15.523 9.543 20 12 18.526 14.457 20l-.595-4.482" fill="#fff"/><path d="M10.138 15.523 9.543 20 12 18.526 14.457 20l-.595-4.482" stroke="#0F151A" stroke-width=".983" stroke-linecap="round" stroke-linejoin="round"/><path d="M12 16.283A3.792 3.792 0 1 0 12 8.7a3.792 3.792 0 0 0 0 7.583Z" fill="#fff" stroke="#0F151A" stroke-width="1.083" stroke-linecap="round" stroke-linejoin="round"/></svg><svg viewBox="-1 -1 26 26" fill="none" width="26" height="26" id="search-card--regulated-qualification-icon" x="226.13" y="78" xmlns="http://www.w3.org/2000/svg"><path d="M13 2H6a2 2 0 0 0-2 2v16a2 2 0 0 0 2 2h12a2 2 0 0 0 2-2V9l-7-7Z" stroke="#0F151A" stroke-width="1.5" stroke-linecap="round" stroke-linejoin="round"/><path d="M13 2v7h7" stroke="#0F151A" stroke-width="1.5" stroke-linecap="round" stroke-linejoin="round"/><path d="M10.138 14.523 9.543 19 12 17.526 14.457 19l-.595-4.482" fill="#fff"/><path d="M10.138 14.523 9.543 19 12 17.526 14.457 19l-.595-4.482" stroke="#0F151A" stroke-width=".983" stroke-linecap="round" stroke-linejoin="round"/><path d="M12 15.284A3.792 3.792 0 1 0 12 7.7a3.792 3.792 0 0 0 0 7.583Z" fill="#fff" stroke="#0F151A" stroke-width="1.083" stroke-linecap="round" stroke-linejoin="round"/></svg><svg viewBox="-1 -1 26 26" fill="none" width="26" height="26" id="search-card--save-icon" x="226.13" y="104" xmlns="http://www.w3.org/2000/svg"><path clip-rule="evenodd" d="M12.013 6.985a.033.033 0 0 1-.019.015.031.031 0 0 1-.024-.003.059.059 0 0 1-.011-.012C6.708-1.687.355 5.512 3.207 12.306c.984 2.376 5.755 8.619 8.788 8.694 3.03-.077 7.8-6.317 8.788-8.694 2.905-6.712-3.474-13.927-8.77-5.32Z" stroke="#0F151A" stroke-width="1.5"/></svg><svg viewBox="-1 -1 26 26" fill="none" width="26" height="26" id="search-card--save-icon-pressed" x="226.13" y="130" xmlns="http://www.w3.org/2000/svg"><path fill-rule="evenodd" clip-rule="evenodd" d="M12.013 6.985a.033.033 0 0 1-.019.015.031.031 0 0 1-.024-.003.059.059 0 0 1-.011-.012C6.708-1.687.355 5.512 3.207 12.306c.984 2.376 5.755 8.619 8.788 8.694 3.03-.077 7.8-6.317 8.788-8.694 2.905-6.712-3.474-13.927-8.77-5.32Z" fill="#50B446" stroke="#50B446" stroke-width="1.5"/></svg><svg viewBox="-1 -1 26 26" fill="none" width="26" height="26" id="search-card--share-icon" x="226.13" y="156" xmlns="http://www.w3.org/2000/svg"><path d="M18 8a3 3 0 1 0 0-6 3 3 0 0 0 0 6ZM6 15a3 3 0 1 0 0-6 3 3 0 0 0 0 6ZM18 22a3 3 0 1 0 0-6 3 3 0 0 0 0 6ZM8.59 13.51l6.83 3.98M15.41 6.51l-6.82 3.98" stroke="#0F151A" stroke-width="2" stroke-linecap="round" stroke-linejoin="round"/></svg><svg viewBox="-1 -1 26 26" fill="none" width="26" height="26" id="search-card--totum-icon" x="226.13" y="182" xmlns="http://www.w3.org/2000/svg"><g clip-path="url(#dya)"><path d="M21 5H3a2 2 0 0 0-2 2v12a2 2 0 0 0 2 2h18a2 2 0 0 0 2-2V7a2 2 0 0 0-2-2ZM1 11h22" stroke="#0F151A" stroke-width="1.5" stroke-linecap="round" stroke-linejoin="round"/><path d="m9.866 13.217-.666 5.01 2.75-1.65 2.75 1.65-.665-5.015" fill="#fff"/><path d="m9.866 13.217-.666 5.01 2.75-1.65 2.75 1.65-.665-5.015" stroke="#0F151A" stroke-width="1.1" stroke-linecap="round" stroke-linejoin="round"/><path d="M12 14a3.5 3.5 0 1 0 0-7 3.5 3.5 0 0 0 0 7Z" fill="#fff" stroke="#0F151A" stroke-linecap="round" stroke-linejoin="round"/></g><defs><clipPath id="dya"><path fill="#fff" d="M0 0h24v24H0z"/></clipPath></defs></svg><svg viewBox="-1 -1 26 26" fill="none" width="26" height="26" id="search-card--tutor-icon" y="220" xmlns="http://www.w3.org/2000/svg"><path d="M20 21v-2a4 4 0 0 0-4-4H8a4 4 0 0 0-4 4v2M12 11a4 4 0 1 0 0-8 4 4 0 0 0 0 8Z" stroke="#0F151A" stroke-width="1.5" stroke-linecap="round" stroke-linejoin="round"/><path d="M21 4.5 12 7 3 4.5 12 2l9 2.5Z" fill="#fff" stroke="#0F151A" stroke-width="1.5" stroke-linecap="round" stroke-linejoin="round"/><path d="M3 5v5" stroke="#0F151A" stroke-width="1.5" stroke-linecap="round" stroke-linejoin="round"/></svg><svg viewBox="-1 -1 26 26" fill="none" width="26" height="26" id="search-card--university-qualification-icon" x="26" y="220" xmlns="http://www.w3.org/2000/svg"><path d="m21.62 6.52-8.25-4.6a2.35 2.35 0 0 0-2.69 0l-8.25 4.6a2.14 2.14 0 0 0 0 3.46l.08.06 2.74 1.54v7.17c0 1.18 1.7 3.75 6.75 3.75 5.06 0 6.75-2.57 6.75-3.75v-7.17L21 10.33v8.42a.75.75 0 0 0 1.5 0V8.25a2.15 2.15 0 0 0-.88-1.73Zm-4.37 12.23c0 .3-1.06 2.25-5.25 2.25-4.2 0-5.25-1.96-5.25-2.25v-6.34l3.9 2.17a2.38 2.38 0 0 0 2.7 0l3.9-2.17v6.34Zm3.5-10-8.25 4.6a.85.85 0 0 1-.99 0l-8.25-4.6a.64.64 0 0 1 0-1s8.25-4.57 8.25-4.6a.88.88 0 0 1 1 0l8.26 4.6a.64.64 0 0 1 0 1h-.02Z" fill="#0F151A"/></svg><svg width="24" height="18" viewBox="-1 -1 24 18" id="sort-blue" x="178" y="220" xmlns="http://www.w3.org/2000/svg"><g style="fill-rule:evenodd;fill:none;stroke-linecap:round;stroke-linejoin:round"><g style="stroke-width:2;stroke:#1e1ef0"><path d="M1.857 8.143h11.429M1.857 1.286h18.286M1.857 15h4.572"/></g></g></svg><svg width="24" height="18" viewBox="-1 -1 24 18" id="sort-blue-dark" x="202" y="220" xmlns="http://www.w3.org/2000/svg"><g style="fill-rule:evenodd;fill:none;stroke-linecap:round;stroke-linejoin:round"><g style="stroke-width:2;stroke:#081351"><path d="M1.857 8.143h11.429M1.857 1.286h18.286M1.857 15h4.572"/></g></g></svg><svg width="26" height="26" fill="none" stroke="currentColor" stroke-width="2" stroke-linecap="round" stroke-linejoin="round" class="czfeather czfeather-star" viewBox="-1 -1 26 26" id="star" x="52" y="220" xmlns="http://www.w3.org/2000/svg"><defs><clipPath id="czsvgTextPath"><path d="m12 2 3.09 6.26L22 9.27l-5 4.87 1.18 6.88L12 17.77l-6.18 3.25L7 14.14 2 9.27l6.91-1.01L12 2z"/></clipPath></defs></svg><svg viewBox="-1 -1 26 26" style="enable-background:new 0 0 24 24" xml:space="preserve" width="26" height="26" id="star-blue" x="78" y="220" xmlns="http://www.w3.org/2000/svg"><path style="fill:none;stroke:#1e1ef0;stroke-width:2;stroke-linecap:round;stroke-linejoin:round" d="m12 2 3.1 6.3 6.9 1-5 4.8 1.2 6.9-6.2-3.2L5.8 21 7 14.1 2 9.3l6.9-1z"/></svg><svg width="21" height="19" viewBox="-1 -1 21 19" id="star-blue-small" x="175.4" y="156" xmlns="http://www.w3.org/2000/svg"><path fill="none" stroke="#1E1EF0" stroke-linecap="round" stroke-linejoin="round" stroke-width="2" d="m9.5 1 2.627 5.321L18 7.18l-4.25 4.139 1.003 5.848L9.5 14.404l-5.253 2.763 1.003-5.848L1 7.179l5.873-.858z"/></svg><svg viewBox="-1 -1 26 26" fill="none" width="26" height="26" id="students-icon" x="104" y="220" xmlns="http://www.w3.org/2000/svg"><path d="M20 21v-2a4 4 0 0 0-4-4H8a4 4 0 0 0-4 4v2M12 11a4 4 0 1 0 0-8 4 4 0 0 0 0 8Z" stroke="#2E3237" stroke-width="1.5" stroke-linecap="round" stroke-linejoin="round"/></svg><svg viewBox="-1 -1 52 52" width="52" height="52" id="twitter-footer-logo" x="146.13" xmlns="http://www.w3.org/2000/svg"><path d="M37.59 16.892c-.926.41-1.92.688-2.964.813a5.173 5.173 0 0 0 2.269-2.855 10.334 10.334 0 0 1-3.277 1.252 5.16 5.16 0 0 0-8.794 4.707 14.652 14.652 0 0 1-10.638-5.393 5.14 5.14 0 0 0-.699 2.595c0 1.791.911 3.37 2.296 4.296a5.14 5.14 0 0 1-2.338-.646v.065a5.164 5.164 0 0 0 4.14 5.061 5.166 5.166 0 0 1-2.331.088 5.166 5.166 0 0 0 4.821 3.584 10.357 10.357 0 0 1-6.41 2.209c-.417 0-.827-.024-1.231-.072a14.612 14.612 0 0 0 7.912 2.319c9.493 0 14.685-7.865 14.685-14.685 0-.224-.005-.446-.015-.668a10.473 10.473 0 0 0 2.574-2.67z" fill="#CCC"/></svg></svg>