<svg width="14" height="14" viewBox="0 0 14 14" fill="none" xmlns="http://www.w3.org/2000/svg">
<path d="M2.37405 12.3634L2.08016 12.7679L2.37405 12.3634ZM1.63661 11.626L1.2321 11.9198L1.63661 11.626ZM12.3634 11.626L11.9589 11.3321L12.3634 11.626ZM11.626 12.3634L11.3321 11.9589L11.626 12.3634ZM11.626 1.63661L11.3321 2.04112L11.626 1.63661ZM12.3634 2.37405L11.9589 2.66794L12.3634 2.37405ZM2.37405 1.63661L2.66794 2.04112L2.37405 1.63661ZM1.63661 2.37405L2.04112 2.66794L1.63661 2.37405ZM2.33563 12.2217L1.83605 12.2011L1.83563 12.2114V12.2217H2.33563ZM11.6603 12.1483L12.1601 12.1313L12.1598 12.1227L12.1592 12.1142L11.6603 12.1483ZM9.16667 5C9.16667 6.19662 8.19662 7.16667 7 7.16667V8.16667C8.7489 8.16667 10.1667 6.7489 10.1667 5H9.16667ZM7 7.16667C5.80338 7.16667 4.83333 6.19662 4.83333 5H3.83333C3.83333 6.7489 5.2511 8.16667 7 8.16667V7.16667ZM4.83333 5C4.83333 3.80338 5.80338 2.83333 7 2.83333V1.83333C5.2511 1.83333 3.83333 3.2511 3.83333 5H4.83333ZM7 2.83333C8.19662 2.83333 9.16667 3.80338 9.16667 5H10.1667C10.1667 3.2511 8.7489 1.83333 7 1.83333V2.83333ZM7 12.5C5.73895 12.5 4.83333 12.4993 4.13203 12.4233C3.44009 12.3484 3.00661 12.2049 2.66794 11.9589L2.08016 12.7679C2.61771 13.1585 3.24729 13.3333 4.02432 13.4175C4.79198 13.5007 5.76123 13.5 7 13.5V12.5ZM0.5 7C0.5 8.23877 0.499314 9.20802 0.582485 9.97568C0.666671 10.7527 0.841549 11.3823 1.2321 11.9198L2.04112 11.3321C1.79506 10.9934 1.65163 10.5599 1.57667 9.86797C1.50069 9.16667 1.5 8.26105 1.5 7H0.5ZM12.5 7C12.5 8.26105 12.4993 9.16667 12.4233 9.86797C12.3484 10.5599 12.2049 10.9934 11.9589 11.3321L12.7679 11.9198C13.1585 11.3823 13.3333 10.7527 13.4175 9.97568C13.5007 9.20802 13.5 8.23877 13.5 7H12.5ZM7 13.5C8.23877 13.5 9.20802 13.5007 9.97568 13.4175C10.7527 13.3333 11.3823 13.1585 11.9198 12.7679L11.3321 11.9589C10.9934 12.2049 10.5599 12.3484 9.86797 12.4233C9.16667 12.4993 8.26105 12.5 7 12.5V13.5ZM7 1.5C8.26105 1.5 9.16667 1.50069 9.86797 1.57667C10.5599 1.65163 10.9934 1.79506 11.3321 2.04112L11.9198 1.2321C11.3823 0.841549 10.7527 0.666671 9.97568 0.582485C9.20802 0.499314 8.23877 0.5 7 0.5V1.5ZM13.5 7C13.5 5.76123 13.5007 4.79198 13.4175 4.02432C13.3333 3.24729 13.1585 2.61771 12.7679 2.08016L11.9589 2.66794C12.2049 3.00661 12.3484 3.44009 12.4233 4.13203C12.4993 4.83333 12.5 5.73895 12.5 7H13.5ZM11.3321 2.04112C11.5726 2.21588 11.7841 2.42741 11.9589 2.66794L12.7679 2.08016C12.5315 1.75473 12.2453 1.46854 11.9198 1.2321L11.3321 2.04112ZM7 0.5C5.76123 0.5 4.79198 0.499314 4.02432 0.582485C3.24729 0.666671 2.61771 0.841549 2.08016 1.2321L2.66794 2.04112C3.00661 1.79506 3.44009 1.65163 4.13203 1.57667C4.83333 1.50069 5.73895 1.5 7 1.5V0.5ZM1.5 7C1.5 5.73895 1.50069 4.83333 1.57667 4.13203C1.65163 3.44009 1.79506 3.00661 2.04112 2.66794L1.2321 2.08016C0.841549 2.61771 0.666671 3.24729 0.582485 4.02432C0.499314 4.79198 0.5 5.76123 0.5 7H1.5ZM2.08016 1.2321C1.75473 1.46854 1.46854 1.75473 1.2321 2.08016L2.04112 2.66794C2.21588 2.42741 2.42741 2.21588 2.66794 2.04112L2.08016 1.2321ZM5 10.1667H9V9.16667H5V10.1667ZM5 9.16667C3.2954 9.16667 1.90558 10.5133 1.83605 12.2011L2.83521 12.2422C2.88275 11.0881 3.8339 10.1667 5 10.1667V9.16667ZM2.66794 11.9589C2.657 11.9509 2.64612 11.9429 2.63528 11.9348L2.03597 12.7353C2.05061 12.7463 2.06534 12.7571 2.08016 12.7679L2.66794 11.9589ZM2.63528 11.9348C2.40823 11.7648 2.20792 11.5616 2.04112 11.3321L1.2321 11.9198C1.45778 12.2305 1.72878 12.5053 2.03597 12.7353L2.63528 11.9348ZM1.83563 12.2217V12.3351H2.83563V12.2217H1.83563ZM9 10.1667C10.1459 10.1667 11.0844 11.0565 11.1615 12.1825L12.1592 12.1142C12.0463 10.4672 10.6753 9.16667 9 9.16667V10.1667ZM11.9589 11.3321C11.7926 11.561 11.5929 11.7636 11.3667 11.9333L11.9667 12.7333C12.2728 12.5038 12.5429 12.2296 12.7679 11.9198L11.9589 11.3321ZM11.3667 11.9333C11.3552 11.9419 11.3437 11.9505 11.3321 11.9589L11.9198 12.7679C11.9355 12.7565 11.9512 12.745 11.9667 12.7333L11.3667 11.9333ZM11.1606 12.1654L11.167 12.3504L12.1664 12.3163L12.1601 12.1313L11.1606 12.1654Z" fill="#73737D"/>
</svg>
