<svg width="25" height="22" viewBox="0 0 25 22" fill="none" xmlns="http://www.w3.org/2000/svg">
<path d="M8.60235 21.8766C9.57846 21.8766 10.3697 21.0853 10.3697 20.1092C10.3697 19.1331 9.57846 18.3418 8.60235 18.3418C7.62625 18.3418 6.83496 19.1331 6.83496 20.1092C6.83496 21.0853 7.62625 21.8766 8.60235 21.8766Z" fill="#242424"/>
<path d="M20.9734 21.8756C21.9496 21.8756 22.7408 21.0843 22.7408 20.1082C22.7408 19.1321 21.9496 18.3408 20.9734 18.3408C19.9973 18.3408 19.2061 19.1321 19.2061 20.1082C19.2061 21.0843 19.9973 21.8756 20.9734 21.8756Z" fill="#242424"/>
<path d="M24.1096 3.80301C23.9854 3.65115 23.829 3.52884 23.6517 3.44496C23.4744 3.36109 23.2807 3.31774 23.0845 3.31808H6.27495L5.93638 1.39715C5.90028 1.19253 5.79324 1.00718 5.63405 0.873649C5.47486 0.740118 5.27372 0.666949 5.06594 0.666992H1.53116C1.29679 0.666992 1.07201 0.760096 0.906289 0.925821C0.740564 1.09155 0.647461 1.31632 0.647461 1.55069C0.647461 1.78506 0.740564 2.00983 0.906289 2.17556C1.07201 2.34128 1.29679 2.43438 1.53116 2.43438H4.32474L6.84659 16.7271C6.88269 16.9317 6.98973 17.117 7.14892 17.2506C7.30811 17.3841 7.50925 17.4573 7.71703 17.4572H21.8562C22.0905 17.4572 22.3153 17.3641 22.481 17.1984C22.6468 17.0327 22.7399 16.8079 22.7399 16.5735C22.7399 16.3391 22.6468 16.1144 22.481 15.9487C22.3153 15.7829 22.0905 15.6898 21.8562 15.6898H8.45823L8.14673 13.9224H21.4939C21.8003 13.922 22.0972 13.8158 22.3344 13.6216C22.5715 13.4275 22.7342 13.1574 22.7951 12.857L24.3857 4.90376C24.4241 4.71128 24.4192 4.5127 24.3714 4.32234C24.3237 4.13198 24.2342 3.9546 24.1096 3.80301Z" fill="#242424"/>
</svg>
