<?xml version="1.0" standalone="no"?>
<!DOCTYPE svg PUBLIC "-//W3C//DTD SVG 20010904//EN"
 "http://www.w3.org/TR/2001/REC-SVG-20010904/DTD/svg10.dtd">
<svg version="1.0" xmlns="http://www.w3.org/2000/svg"
 width="32.000000pt" height="32.000000pt" viewBox="0 0 32.000000 32.000000"
 preserveAspectRatio="xMidYMid meet">

<g transform="translate(0.000000,32.000000) scale(0.100000,-0.100000)"
fill="#000000" stroke="none">
<path d="M95 306 c-101 -44 -125 -178 -46 -257 120 -120 321 8 261 167 -15 37
-23 24 -9 -15 13 -38 5 -92 -19 -121 l-18 -22 -36 36 c-49 49 -87 49 -135 1
-41 -41 -56 -36 -75 26 -15 53 2 108 47 148 45 39 94 48 147 27 51 -20 65 -12
15 9 -44 18 -92 19 -132 1z m94 -197 c18 -6 38 -24 47 -40 15 -29 15 -30 -20
-44 -44 -19 -68 -19 -111 -1 -33 14 -34 16 -23 42 10 21 32 37 74 54 1 0 15
-5 33 -11z"/>
<path d="M115 226 c-30 -45 13 -98 66 -81 55 18 38 105 -21 105 -20 0 -35 -8
-45 -24z m73 2 c34 -34 -6 -90 -48 -68 -35 19 -20 80 20 80 9 0 21 -5 28 -12z"/>
</g>
</svg>
