<svg width="21" height="25" viewBox="0 0 21 25" fill="none" xmlns="http://www.w3.org/2000/svg">
<path d="M10.5062 11.9327C12.0926 11.9327 13.4663 11.3637 14.5887 10.2411C15.7111 9.11869 16.2801 7.74536 16.2801 6.15877C16.2801 4.57274 15.7111 3.19922 14.5885 2.07645C13.466 0.954229 12.0924 0.385254 10.5062 0.385254C8.91962 0.385254 7.54628 0.954229 6.42387 2.07663C5.30146 3.19904 4.7323 4.57256 4.7323 6.15877C4.7323 7.74536 5.30146 9.11887 6.42405 10.2413C7.54665 11.3635 8.92017 11.9327 10.5062 11.9327Z" fill="white"/>
<path d="M20.6096 18.8182C20.5772 18.3511 20.5118 17.8416 20.4154 17.3035C20.3181 16.7614 20.1928 16.249 20.0428 15.7806C19.8879 15.2965 19.6772 14.8184 19.4168 14.3602C19.1465 13.8847 18.829 13.4707 18.4727 13.1299C18.1001 12.7735 17.644 12.4869 17.1166 12.2778C16.5909 12.0699 16.0084 11.9645 15.3853 11.9645C15.1406 11.9645 14.9039 12.0649 14.4469 12.3625C14.1656 12.546 13.8366 12.7581 13.4693 12.9928C13.1553 13.1928 12.7299 13.3803 12.2044 13.55C11.6918 13.7159 11.1713 13.8 10.6575 13.8C10.1438 13.8 9.62346 13.7159 9.11026 13.55C8.58536 13.3805 8.15996 13.193 7.8463 12.9929C7.48252 12.7605 7.15332 12.5483 6.86782 12.3623C6.41132 12.0648 6.17448 11.9644 5.92977 11.9644C5.30647 11.9644 4.72414 12.0699 4.19869 12.278C3.6716 12.4867 3.21528 12.7733 2.84236 13.1301C2.48627 13.471 2.16859 13.8849 1.89864 14.3602C1.63838 14.8184 1.42769 15.2963 1.2726 15.7808C1.12281 16.2491 0.997529 16.7614 0.90023 17.3035C0.803846 17.8408 0.738371 18.3506 0.705999 18.8188C0.674176 19.2775 0.658081 19.7535 0.658081 20.2343C0.658081 21.4857 1.05587 22.4987 1.8403 23.2458C2.61503 23.9831 3.64014 24.3571 4.88673 24.3571H16.4294C17.676 24.3571 18.7008 23.9833 19.4757 23.2458C20.2603 22.4993 20.6581 21.4861 20.6581 20.2342C20.6579 19.7511 20.6416 19.2747 20.6096 18.8182Z" fill="white"/>
</svg>
