<svg width="20" height="20" viewBox="0 0 20 20" fill="none" xmlns="http://www.w3.org/2000/svg">
<path d="M14.7446 12.8021H13.8642L13.5521 12.5014C14.2486 11.6927 14.7576 10.7402 15.0428 9.712C15.3279 8.6838 15.3821 7.60532 15.2015 6.55374C14.6777 3.45741 12.0922 0.984808 8.9718 0.606121C7.87476 0.467416 6.76051 0.581363 5.71432 0.939242C4.66813 1.29712 3.71771 1.88945 2.93581 2.67089C2.1539 3.45234 1.56123 4.40219 1.20314 5.44777C0.845054 6.49336 0.731041 7.60695 0.869826 8.70334C1.24874 11.8219 3.72279 14.4059 6.82093 14.9294C7.87313 15.1099 8.95224 15.0557 9.98105 14.7707C11.0099 14.4858 11.9629 13.9771 12.772 13.281L13.0729 13.5929V14.4728L17.8093 19.2063C18.2662 19.663 19.0129 19.663 19.4698 19.2063C19.9267 18.7497 19.9267 18.0035 19.4698 17.5468L14.7446 12.8021ZM8.05796 12.8021C5.283 12.8021 3.04298 10.5634 3.04298 7.79004C3.04298 5.01671 5.283 2.778 8.05796 2.778C10.8329 2.778 13.0729 5.01671 13.0729 7.79004C13.0729 10.5634 10.8329 12.8021 8.05796 12.8021Z" fill="#F5A033"/>
</svg>
