<svg width="16" height="24" viewBox="0 0 16 24" fill="none" xmlns="http://www.w3.org/2000/svg">
<path fill-rule="evenodd" clip-rule="evenodd" d="M15.36 4.57234C15.3598 4.56736 15.3597 4.56237 15.3593 4.55739C15.3579 4.53763 15.3559 4.51822 15.352 4.49899C15.352 4.49899 15.352 4.49899 15.352 4.49882C15.3481 4.47959 15.3426 4.46054 15.3363 4.44203C15.3347 4.4374 15.3331 4.43277 15.3314 4.42814C15.3248 4.41052 15.3173 4.39325 15.3087 4.37652C15.3082 4.37563 15.3079 4.37474 15.3073 4.37385C15.2981 4.3564 15.2874 4.33984 15.2758 4.32364C15.273 4.31955 15.2699 4.31563 15.2669 4.31154C15.2546 4.29552 15.2418 4.28003 15.2274 4.26561L11.1034 0.141572C11.0889 0.127153 11.0734 0.114335 11.0574 0.102052C11.0533 0.0990254 11.0492 0.095821 11.0451 0.0929727C11.0289 0.0814013 11.0126 0.0707201 10.9953 0.061641C10.994 0.0609289 10.9928 0.0605729 10.9917 0.0598608C10.9754 0.0513158 10.9583 0.0440169 10.941 0.0374301C10.9362 0.0356499 10.9316 0.0340477 10.9266 0.0324455C10.9081 0.0262148 10.8894 0.0206962 10.87 0.0167797C10.8698 0.0167797 10.8696 0.0167797 10.8696 0.0167797C10.8506 0.0130412 10.8312 0.010905 10.8116 0.00948081C10.8066 0.00930279 10.8016 0.00894674 10.7966 0.00876873C10.7915 0.00859071 10.7863 0.00805664 10.7811 0.00805664H0.455734C0.204012 0.00805664 0 0.212069 0 0.463791V19.9703C0 20.222 0.204012 20.426 0.455734 20.426H7.31702V22.8859C7.31702 23.0516 7.4071 23.2044 7.55219 23.2847C7.69745 23.365 7.87459 23.3602 8.01504 23.272L9.75075 22.1831L11.4865 23.272C11.5603 23.3183 11.6445 23.3416 11.7287 23.3416C11.8046 23.3416 11.8806 23.3228 11.9493 23.2848C12.0944 23.2046 12.1845 23.0518 12.1845 22.8859V20.426H14.905C15.1567 20.426 15.3607 20.222 15.3607 19.9703V4.58783C15.3607 4.58266 15.3602 4.5775 15.36 4.57234ZM11.2369 1.56414L13.8048 4.13209H11.2369V1.56414ZM7.09218 14.0844C7.06014 13.9973 7.00798 13.8551 7.00673 13.7969C7.04234 13.7527 7.16588 13.6746 7.24154 13.6268C7.4039 13.5243 7.58797 13.4079 7.72149 13.2259C7.85625 13.042 7.91108 12.8297 7.9595 12.6424C7.98069 12.5605 8.01487 12.4282 8.04406 12.3782C8.06008 12.3748 8.09373 12.37 8.15693 12.37C8.20766 12.37 8.26445 12.3729 8.32462 12.3759C8.39369 12.3793 8.4649 12.3828 8.53932 12.3828C8.70345 12.3828 8.8359 12.3643 8.95606 12.3243C9.16595 12.2545 9.33382 12.1194 9.48194 12.0001C9.56383 11.9342 9.7009 11.8239 9.74861 11.8171C9.80077 11.8239 9.93767 11.9342 10.0196 12.0001C10.1677 12.1194 10.3357 12.2545 10.5456 12.3243C10.6658 12.3643 10.798 12.3828 10.9624 12.3828C11.0366 12.3828 11.108 12.3793 11.1769 12.3759C11.237 12.3729 11.2938 12.37 11.3448 12.37C11.4079 12.37 11.4414 12.3746 11.4576 12.3782C11.4868 12.4282 11.521 12.5605 11.542 12.6424C11.5904 12.8297 11.6454 13.042 11.7802 13.2259C11.9135 13.4079 12.0976 13.5241 12.2601 13.6268C12.3356 13.6747 12.4592 13.7527 12.4948 13.7969C12.4935 13.8551 12.4414 13.9973 12.4095 14.0844C12.3417 14.269 12.2649 14.4783 12.2649 14.7103C12.2649 14.9422 12.3417 15.1516 12.4093 15.3364C12.4414 15.4234 12.4935 15.5657 12.4948 15.6239C12.4592 15.668 12.3356 15.746 12.2601 15.7939C12.0976 15.8964 11.9135 16.0129 11.7802 16.1948C11.6454 16.3787 11.5904 16.5911 11.542 16.7784C11.521 16.8601 11.4866 16.9925 11.4576 17.0425C11.4414 17.0459 11.4079 17.0507 11.3448 17.0507C11.2938 17.0507 11.237 17.0479 11.1769 17.0449C11.108 17.0415 11.0366 17.0379 10.9624 17.0379C10.798 17.0379 10.6658 17.0564 10.5456 17.0965C10.3357 17.1663 10.1677 17.3016 10.0196 17.4207C9.93892 17.4858 9.80433 17.5939 9.75075 17.6035C9.69717 17.5939 9.56276 17.4858 9.48212 17.4207C9.33382 17.3016 9.16595 17.1663 8.95606 17.0965C8.8359 17.0564 8.70345 17.0379 8.53932 17.0379C8.46508 17.0379 8.39369 17.0415 8.32462 17.0449C8.26463 17.0479 8.20784 17.0507 8.15693 17.0507C8.09373 17.0507 8.06026 17.0459 8.04406 17.0425C8.01487 16.9925 7.98069 16.8602 7.9595 16.7784C7.91126 16.5911 7.85625 16.3787 7.72149 16.1948C7.58815 16.0129 7.40408 15.8964 7.24154 15.7939C7.16606 15.7462 7.04251 15.668 7.00691 15.6239C7.00816 15.5659 7.06032 15.4234 7.09218 15.3364C7.16001 15.1518 7.23674 14.9424 7.23674 14.7105C7.23674 14.4783 7.15983 14.269 7.09218 14.0844ZM11.273 22.062L9.99304 21.259C9.84492 21.1662 9.65658 21.1662 9.50846 21.259L8.22849 22.062V17.9608C8.27691 17.9593 8.32444 17.9576 8.37055 17.9553C8.4309 17.952 8.48787 17.9492 8.53932 17.9492C8.62014 17.9492 8.65467 17.9567 8.66803 17.9611C8.72232 17.9793 8.82664 18.0633 8.91049 18.1308C9.12323 18.302 9.38794 18.5151 9.75075 18.5151C10.1136 18.5151 10.3783 18.302 10.591 18.1308C10.6749 18.0633 10.7792 17.9793 10.8333 17.9613C10.8468 17.9569 10.8814 17.9494 10.9622 17.9494C11.0136 17.9494 11.0706 17.9522 11.1309 17.9553C11.1771 17.9576 11.2246 17.9595 11.2728 17.9608V22.062H11.273ZM12.1845 19.5145V17.5935C12.32 17.4094 12.3766 17.1915 12.4244 17.0064C12.4495 16.9092 12.4839 16.7762 12.5152 16.7337C12.5464 16.6909 12.6623 16.6178 12.7468 16.5644C12.9712 16.4227 13.2503 16.2463 13.3612 15.9126C13.4709 15.5835 13.3567 15.2725 13.2651 15.0225C13.2234 14.9091 13.1762 14.7804 13.1762 14.7103C13.1762 14.6401 13.2234 14.5116 13.2651 14.3982C13.3567 14.1483 13.4709 13.8371 13.3612 13.5079C13.2503 13.1745 12.9712 12.9981 12.7468 12.8564C12.6623 12.803 12.5464 12.7296 12.5152 12.6873C12.4839 12.6445 12.4495 12.5115 12.4244 12.4143C12.3589 12.1607 12.2774 11.8449 11.9983 11.6401C11.7761 11.4774 11.5189 11.4586 11.3446 11.4586C11.2709 11.4586 11.1997 11.4621 11.1309 11.4657C11.0706 11.4687 11.0136 11.4715 10.9624 11.4715C10.8814 11.4715 10.8468 11.4641 10.8335 11.4596C10.7794 11.4416 10.675 11.3576 10.5912 11.29C10.3783 11.1189 10.1136 10.9058 9.75075 10.9058C9.38812 10.9058 9.12323 11.1189 8.91049 11.29C8.82664 11.3574 8.72232 11.4416 8.6682 11.4596C8.65485 11.4641 8.62014 11.4715 8.53932 11.4715C8.48805 11.4715 8.4309 11.4687 8.37055 11.4655C8.30184 11.4621 8.23081 11.4586 8.15693 11.4586C7.98282 11.4586 7.72558 11.4774 7.50359 11.6401C7.22427 11.8449 7.14256 12.1607 7.07705 12.4143C7.05195 12.5115 7.01759 12.6445 6.98644 12.6871C6.95511 12.7296 6.83921 12.803 6.75465 12.8564C6.53035 12.9981 6.25139 13.1745 6.1403 13.5079C6.03064 13.8373 6.14475 14.1483 6.23644 14.3982C6.27809 14.5116 6.32527 14.6401 6.32527 14.7103C6.32527 14.7804 6.27809 14.9091 6.23644 15.0225C6.14475 15.2725 6.03064 15.5835 6.1403 15.9128C6.25139 16.2463 6.53053 16.4227 6.75465 16.5644C6.83939 16.6178 6.95511 16.6911 6.98644 16.7337C7.01759 16.7762 7.05195 16.9092 7.07705 17.0064C7.12494 17.1915 7.18173 17.4096 7.3172 17.5935V19.5145H0.911468V0.919525H10.3254V4.58783C10.3254 4.83955 10.5294 5.04356 10.7811 5.04356H14.4493V19.5145H12.1845Z" fill="#F16232"/>
</svg>
