<svg width="18" height="18" viewBox="0 0 18 18" fill="none" xmlns="http://www.w3.org/2000/svg">
<path d="M8.1354 3.91516C7.92984 3.91517 7.7327 3.99684 7.58735 4.14219C7.44201 4.28754 7.36035 4.48468 7.36035 4.69024V9.34058C7.36036 9.54613 7.44202 9.74326 7.58737 9.8886C7.73271 10.034 7.92984 10.1156 8.1354 10.1156H11.6231C11.7254 10.1163 11.8267 10.0968 11.9214 10.0582C12.016 10.0195 12.1021 9.96254 12.1746 9.8905C12.2472 9.81846 12.3047 9.73278 12.344 9.63839C12.3833 9.54401 12.4035 9.44279 12.4035 9.34056C12.4035 9.23833 12.3833 9.1371 12.344 9.04272C12.3047 8.94834 12.2472 8.86266 12.1746 8.79062C12.1021 8.71858 12.016 8.6616 11.9214 8.62296C11.8267 8.58433 11.7254 8.5648 11.6231 8.5655H8.91048V4.69024C8.91047 4.48468 8.8288 4.28754 8.68345 4.14219C8.5381 3.99683 8.34096 3.91517 8.1354 3.91516Z" fill="#F16232"/>
<path d="M14.5517 2.92459C11.2274 -0.399669 5.81867 -0.399669 2.4944 2.92459C2.34966 3.07005 2.26851 3.26698 2.26876 3.47219C2.26902 3.6774 2.35065 3.87413 2.49576 4.01923C2.64086 4.16433 2.83759 4.24596 3.0428 4.24621C3.24801 4.24645 3.44494 4.1653 3.59039 4.02055C6.3099 1.30068 10.7355 1.30068 13.4557 4.02055C16.1752 6.74027 16.1752 11.1658 13.4557 13.8855C11.057 16.2837 7.30961 16.5586 4.58575 14.7006L5.27752 14.47C5.47254 14.4049 5.63373 14.2651 5.72564 14.0812C5.81755 13.8973 5.83264 13.6844 5.7676 13.4894C5.70256 13.2944 5.56272 13.1332 5.37883 13.0413C5.19494 12.9494 4.98207 12.9343 4.78706 12.9993L2.77797 13.6692C2.60124 13.7281 2.45167 13.8488 2.3566 14.009C2.26153 14.1692 2.22733 14.3583 2.26025 14.5417L2.67381 16.8408C2.70601 17.0195 2.79995 17.1813 2.93924 17.2979C3.07853 17.4146 3.25433 17.4786 3.43599 17.4788C3.48229 17.4788 3.52848 17.4746 3.57404 17.4663C3.77635 17.43 3.95591 17.3147 4.07324 17.1459C4.19057 16.9772 4.23606 16.7687 4.1997 16.5664L4.14397 16.2566C5.77338 17.2322 7.68166 17.6366 9.56674 17.4056C11.4518 17.1746 13.206 16.3215 14.5517 14.9814C17.8756 11.6574 17.8756 6.24864 14.5517 2.92459Z" fill="#F16232"/>
<path d="M1.88726 4.87298C1.79577 4.82834 1.69637 4.80218 1.59475 4.79599C1.49314 4.7898 1.3913 4.8037 1.29506 4.8369C1.19882 4.8701 1.11008 4.92194 1.03389 4.98947C0.957708 5.057 0.895583 5.13888 0.851072 5.23044C0.788268 5.35907 0.729231 5.48887 0.673959 5.61983C0.6336 5.71362 0.61217 5.81445 0.6109 5.91654C0.60963 6.01863 0.628545 6.11996 0.666559 6.21472C0.704573 6.30948 0.760937 6.39579 0.832411 6.4687C0.903885 6.54161 0.989061 6.59967 1.08304 6.63956C1.17703 6.67945 1.27797 6.70037 1.38006 6.70113C1.48216 6.70188 1.5834 6.68246 1.67796 6.64397C1.77253 6.60548 1.85856 6.54869 1.9311 6.47685C2.00365 6.40501 2.06129 6.31954 2.1007 6.22536C2.14612 6.11902 2.19378 6.01344 2.2445 5.90899C2.28908 5.81751 2.3152 5.71814 2.32137 5.61657C2.32754 5.51499 2.31365 5.41319 2.28047 5.31699C2.2473 5.22078 2.1955 5.13206 2.12803 5.05587C2.06056 4.97969 1.97875 4.91754 1.88726 4.87298Z" fill="#F16232"/>
<path d="M0.775337 9.53736C0.977371 9.53732 1.1714 9.45835 1.31604 9.3173C1.46068 9.17625 1.5445 8.98427 1.54962 8.7823C1.5534 8.63603 1.56159 8.4897 1.57421 8.34331C1.58299 8.24193 1.57171 8.13981 1.54101 8.04278C1.51032 7.94576 1.46082 7.85573 1.39533 7.77784C1.32985 7.69994 1.24966 7.63571 1.15935 7.58881C1.06904 7.5419 0.970381 7.51325 0.868997 7.50447C0.767613 7.4957 0.665493 7.50698 0.568469 7.53767C0.471444 7.56836 0.381415 7.61787 0.303522 7.68335C0.225628 7.74884 0.161396 7.82902 0.114492 7.91933C0.0675875 8.00964 0.0389304 8.1083 0.0301565 8.20969C0.0146554 8.38703 0.00468863 8.56465 0.000256277 8.74255C-0.0050251 8.948 0.0715043 9.14713 0.213016 9.29617C0.354528 9.4452 0.549436 9.53193 0.754882 9.53729C0.761712 9.53736 0.768506 9.53736 0.775337 9.53736Z" fill="#F16232"/>
<path d="M1.83625 10.9441C1.80758 10.846 1.7598 10.7546 1.69566 10.6751C1.63153 10.5956 1.5523 10.5295 1.46254 10.4807C1.37278 10.4319 1.27425 10.4013 1.17263 10.3908C1.07102 10.3802 0.968311 10.3898 0.870424 10.4191C0.772537 10.4483 0.681401 10.4967 0.60226 10.5613C0.523119 10.6259 0.457534 10.7055 0.409279 10.7956C0.361023 10.8856 0.331049 10.9843 0.321081 11.086C0.311112 11.1877 0.321347 11.2903 0.351195 11.388C0.391703 11.5239 0.435591 11.6594 0.48293 11.7935C0.516699 11.8895 0.56905 11.978 0.636993 12.0537C0.704935 12.1295 0.78714 12.1912 0.878913 12.2352C0.970685 12.2792 1.07023 12.3047 1.17186 12.3103C1.27349 12.3158 1.37522 12.3013 1.47124 12.2675C1.56725 12.2337 1.65568 12.1814 1.73146 12.1135C1.80725 12.0455 1.86891 11.9633 1.91292 11.8715C1.95694 11.7798 1.98245 11.6802 1.98799 11.5786C1.99354 11.477 1.97901 11.3752 1.94524 11.2792C1.90625 11.1682 1.86992 11.0565 1.83625 10.9441Z" fill="#F16232"/>
</svg>
