<svg width="16" height="19" viewBox="0 0 16 19" fill="none" xmlns="http://www.w3.org/2000/svg">
<path d="M12.8868 6.96182H5.03484V3.91677C5.03484 2.5738 6.16447 1.48124 7.55295 1.48124C8.94143 1.48124 10.0711 2.5738 10.0711 3.91677V5.33246H11.5523V3.91677C11.5523 1.75705 9.75818 0 7.55295 0C5.34772 0 3.5536 1.75705 3.5536 3.91677V6.96182H2.22186C0.996726 6.96182 0 7.95855 0 9.18368V16.738C0 17.9631 0.996726 18.9599 2.22186 18.9599H12.8868C14.1119 18.9599 15.1086 17.9631 15.1086 16.738V9.18368C15.1086 7.95855 14.1119 6.96182 12.8868 6.96182ZM13.6274 16.738C13.6274 17.1464 13.2952 17.4786 12.8868 17.4786H2.22186C1.81348 17.4786 1.48124 17.1464 1.48124 16.738V9.18368C1.48124 8.77531 1.81348 8.44306 2.22186 8.44306H12.8868C13.2952 8.44306 13.6274 8.77531 13.6274 9.18368V16.738Z" fill="#F16232"/>
<path d="M7.55423 10.5906C6.7975 10.5906 6.18408 11.204 6.18408 11.9607C6.18408 12.4439 6.43441 12.8684 6.81224 13.1123V14.738C6.81224 15.1471 7.14381 15.4787 7.55286 15.4787C7.96187 15.4787 8.29348 15.1471 8.29348 14.738V13.1141C8.67282 12.8704 8.92437 12.4451 8.92437 11.9607C8.92437 11.204 8.31096 10.5906 7.55423 10.5906Z" fill="#F16232"/>
</svg>
