<svg width="14" height="12" viewBox="0 0 14 12" fill="none" xmlns="http://www.w3.org/2000/svg">
<path d="M7.95062 0C4.61589 0 1.90411 2.69249 1.90411 6V6.01984L0.706803 4.23146C0.589645 4.05574 0.349613 4.00756 0.172446 4.12376C-0.00472014 4.23996 -0.053298 4.47803 0.0638604 4.65376L1.80123 7.24705C1.8641 7.34058 1.96411 7.40009 2.07556 7.41427C2.0927 7.4171 2.10699 7.4171 2.12413 7.4171C2.21843 7.4171 2.30987 7.38309 2.38131 7.3179L4.79592 5.16108C4.95308 5.01937 4.96737 4.77846 4.82449 4.61974C4.68162 4.46386 4.43873 4.44969 4.27871 4.5914L2.67564 6.02834V6C2.67564 3.11195 5.04167 0.765234 7.95062 0.765234C10.8596 0.765234 13.2285 3.11195 13.2285 6C13.2285 8.88805 10.8624 11.2348 7.95348 11.2348C6.54472 11.2348 5.21883 10.6906 4.22441 9.70146C4.07297 9.55125 3.83008 9.55125 3.67863 9.70146C3.52718 9.85168 3.52718 10.0926 3.67863 10.2428C4.82164 11.3765 6.33898 12 7.95348 12C11.2854 12 14 9.31034 14 6C14 2.68966 11.2854 0 7.95062 0Z" fill="#293241"/>
</svg>
