<svg width="12" height="18" viewBox="0 0 12 18" fill="none" xmlns="http://www.w3.org/2000/svg">
<path d="M5.52224 0.341797C2.49343 0.341797 0.0292969 2.80593 0.0292969 5.83474C0.0292969 7.07871 0.458346 8.29741 1.23741 9.26637C1.96108 10.1664 2.35964 11.3122 2.35964 12.4929V13.8911C2.35964 14.5421 2.77714 15.0971 3.35836 15.3033V15.8885C3.35836 16.7145 4.03039 17.3866 4.85643 17.3866H6.18806C7.01409 17.3866 7.68613 16.7145 7.68613 15.8885V15.3033C8.26735 15.0971 8.68485 14.5421 8.68485 13.8911V12.4929C8.68485 11.3122 9.0834 10.1664 9.80711 9.26637C10.5861 8.29741 11.0152 7.07871 11.0152 5.83474C11.0152 2.80593 8.55105 0.341797 5.52224 0.341797ZM6.68741 15.8885C6.68741 16.1638 6.4634 16.3879 6.18806 16.3879H4.85643C4.58109 16.3879 4.35707 16.1638 4.35707 15.8885V15.3891H6.68741V15.8885ZM7.68613 13.8911C7.68613 14.1664 7.46212 14.3904 7.18677 14.3904H3.85771C3.58237 14.3904 3.35836 14.1664 3.35836 13.8911V12.9756H7.68613V13.8911ZM9.02877 8.64054C8.26236 9.59372 7.80102 10.7752 7.70514 12.0101H3.33935C3.24347 10.7752 2.78216 9.59372 2.01575 8.64054C1.36958 7.83691 1.02801 6.86665 1.02801 5.83474C1.02801 3.35663 3.04413 1.34051 5.52224 1.34051C8.00036 1.34051 10.0165 3.35663 10.0165 5.83474C10.0165 6.86665 9.67491 7.83691 9.02877 8.64054Z" fill="#F16232"/>
</svg>
