<svg width="25" height="25" viewBox="0 0 25 25" fill="none" xmlns="http://www.w3.org/2000/svg">
<circle cx="12.5" cy="12.5" r="12.5" fill="#513F4A"/>
<path d="M12.8219 6.03259C12.782 6.05135 12.7281 6.09121 12.7047 6.12404C12.6789 6.15452 12.2852 6.97759 11.8281 7.95074L10.9984 9.71881L9.12344 10.0072C7.78281 10.2112 7.22734 10.305 7.17578 10.3332C7.05859 10.4035 7 10.5137 7 10.6638C7.00234 10.7365 7.01406 10.8186 7.03047 10.8467C7.04688 10.8749 7.61875 11.4705 8.30078 12.1716C8.98516 12.8727 9.59453 13.5012 9.65781 13.5668L9.77266 13.6911L9.44922 15.6796L9.12344 17.6705L9.18203 17.7854C9.25703 17.9401 9.37891 18.0105 9.54297 17.9987C9.64609 17.9917 9.85938 17.8815 11.3195 17.0725C12.2336 16.566 12.9883 16.1533 13 16.1533C13.0117 16.1533 13.7664 16.566 14.6805 17.0725C16.143 17.8815 16.3539 17.9917 16.457 17.9987C16.6211 18.0105 16.743 17.9378 16.818 17.7854L16.8766 17.6705L16.5531 15.6796L16.2273 13.6911L16.3891 13.5223C16.4758 13.4285 17.0875 12.8 17.7438 12.1247C18.4023 11.4494 18.9531 10.8749 18.9695 10.8467C18.9859 10.8186 18.9977 10.7365 19 10.6638C19 10.5137 18.9414 10.4035 18.8242 10.3332C18.7727 10.305 18.2172 10.2112 16.8766 10.0072L15.0016 9.71881L14.1719 7.95074C13.7172 6.97994 13.3211 6.15687 13.2977 6.12404C13.2063 6.00679 12.9789 5.96458 12.8219 6.03259Z" fill="white"/>
</svg>
