<svg width="18" height="18" viewBox="0 0 18 18" fill="none" xmlns="http://www.w3.org/2000/svg">
<path d="M5.47626 0.959961C4.34967 0.959961 3.4027 1.74188 3.12878 2.78657H0.608869C0.447387 2.78657 0.292519 2.85072 0.178334 2.9649C0.0641485 3.07909 0 3.23396 0 3.39544C0 3.55692 0.0641485 3.71179 0.178334 3.82597C0.292519 3.94016 0.447387 4.00431 0.608869 4.00431H3.12878C3.4027 5.04899 4.34967 5.83092 5.47626 5.83092C6.60285 5.83092 7.54982 5.049 7.82374 4.00431H16.4359C16.5974 4.00431 16.7523 3.94016 16.8664 3.82597C16.9806 3.71179 17.0448 3.55692 17.0448 3.39544C17.0448 3.23396 16.9806 3.07909 16.8664 2.9649C16.7523 2.85072 16.5974 2.78657 16.4359 2.78657H7.82374C7.54982 1.74188 6.60285 0.959961 5.47626 0.959961ZM5.47626 2.1777C6.15601 2.1777 6.694 2.71569 6.694 3.39544C6.694 4.07519 6.15601 4.61318 5.47626 4.61318C4.79651 4.61318 4.25852 4.07519 4.25852 3.39544C4.25852 2.71569 4.79651 2.1777 5.47626 2.1777Z" fill="#F16232"/>
<path d="M11.565 7.04883C10.444 7.04883 9.50039 7.8232 9.22104 8.85998H0.608869C0.272601 8.85998 0 9.13257 0 9.46885C0 9.80511 0.272601 10.0777 0.608869 10.0777H9.21153C9.47993 11.1303 10.4327 11.9198 11.565 11.9198C12.6973 11.9198 13.6501 11.1305 13.9184 10.0777H16.4359C16.5974 10.0777 16.7523 10.0136 16.8664 9.89938C16.9806 9.7852 17.0448 9.63033 17.0448 9.46885C17.0448 9.30736 16.9806 9.1525 16.8664 9.03831C16.7523 8.92412 16.5974 8.85998 16.4359 8.85998H13.9077C13.6283 7.82321 12.6859 7.04883 11.565 7.04883ZM11.565 8.26657C12.2447 8.26657 12.7827 8.80456 12.7827 9.48431C12.7827 10.1641 12.2447 10.702 11.565 10.702C10.8852 10.702 10.3472 10.1641 10.3472 9.48431C10.3472 8.80456 10.8852 8.26657 11.565 8.26657Z" fill="#F16232"/>
<path d="M5.47626 13.1372C4.36097 13.1372 3.42297 13.904 3.13829 14.9329H0.608869C0.272601 14.9329 0 15.2055 0 15.5418C0 15.878 0.272601 16.1506 0.608869 16.1506H3.11808C3.38073 17.2113 4.33823 18.0082 5.47626 18.0082C6.61428 18.0082 7.57178 17.2113 7.83444 16.1506H16.4359C16.5974 16.1506 16.7523 16.0865 16.8664 15.9723C16.9806 15.8581 17.0448 15.7032 17.0448 15.5418C17.0448 15.3803 16.9806 15.2254 16.8664 15.1112C16.7523 14.997 16.5974 14.9329 16.4359 14.9329H7.81422C7.52955 13.904 6.59154 13.1372 5.47626 13.1372ZM5.47626 14.3549C6.15601 14.3549 6.694 14.8929 6.694 15.5727C6.694 16.2524 6.15601 16.7904 5.47626 16.7904C4.79651 16.7904 4.25852 16.2524 4.25852 15.5727C4.25852 14.8929 4.79651 14.3549 5.47626 14.3549Z" fill="#F16232"/>
</svg>
