<svg width="22" height="23" viewBox="0 0 22 23" fill="none" xmlns="http://www.w3.org/2000/svg">
<path d="M11.2606 0.608922C5.1355 0.526193 0.135079 5.52662 0.217809 11.6517C0.299491 17.5261 5.08262 22.3092 10.9569 22.3909C17.0831 22.4746 22.0825 17.4742 21.9987 11.3491C21.9181 5.47373 17.135 0.690604 11.2606 0.608922ZM11.0679 8.57347C11.0789 8.51064 11.091 8.44781 11.1051 8.3855C11.2374 7.774 11.532 7.20947 11.9581 6.75133C12.633 6.03242 13.5896 5.63553 14.652 5.63553C15.099 5.63369 15.5429 5.70915 15.9642 5.85858C16.4878 6.04502 16.9594 6.35378 17.3397 6.75918C17.8991 7.36384 18.2321 8.14342 18.2822 8.96565C18.2966 9.16436 18.2966 9.36385 18.2822 9.56256C18.2418 10.1257 18.0962 10.6763 17.8528 11.1857C17.8263 11.2412 17.7985 11.2962 17.7696 11.3507C17.7114 11.4591 17.6491 11.5653 17.5821 11.668C17.4487 11.8729 17.2975 12.0656 17.1302 12.2439C16.4433 12.977 15.5636 13.3817 14.6531 13.3817C14.3116 13.3815 13.9725 13.3253 13.6493 13.2152C13.5407 13.1784 13.4341 13.1359 13.3299 13.088C12.8935 12.8844 12.501 12.5977 12.1743 12.2439C11.4943 11.5063 11.0877 10.5579 11.0224 9.5568C11.013 9.42136 11.0098 9.28732 11.013 9.15467C11.017 8.9602 11.0354 8.76629 11.0679 8.57452V8.57347ZM3.22801 9.84793C3.25349 9.47431 3.34571 9.10829 3.50029 8.76721C3.54389 8.67221 3.59248 8.57957 3.64585 8.4897C3.75259 8.30953 3.87884 8.14166 4.02232 7.98913C4.23487 7.76238 4.48235 7.57111 4.75537 7.42259C4.89172 7.34807 5.0337 7.28434 5.18001 7.232C5.74064 7.03591 6.34338 6.99272 6.92623 7.10686C7.54383 7.22631 8.1079 7.53785 8.53789 7.99698C9.04813 8.54777 9.33567 9.2684 9.34476 10.0191C9.34738 10.1296 9.34476 10.2406 9.33691 10.3532C9.30496 10.7843 9.19867 11.2066 9.02275 11.6015C8.93851 11.7916 8.83813 11.9741 8.72272 12.1471C8.50075 12.4825 8.22141 12.7762 7.89752 13.0147C7.81898 13.0707 7.7373 13.1231 7.653 13.1754C7.48719 13.2742 7.31175 13.3558 7.12939 13.4189C6.85672 13.5142 6.56999 13.563 6.28115 13.5634C6.23246 13.5634 6.18376 13.5634 6.13559 13.5592C6.0394 13.554 5.94359 13.5431 5.84865 13.5268C5.75419 13.5103 5.66068 13.4888 5.56853 13.4624C5.4301 13.4224 5.29495 13.3718 5.1643 13.311C5.12032 13.2906 5.07738 13.2692 5.03445 13.2466C4.09196 12.7497 3.38143 11.7198 3.24215 10.5176C3.23587 10.4626 3.23063 10.4077 3.22697 10.3522C3.21514 10.1843 3.21549 10.0158 3.22801 9.84793ZM6.05129 19.1995C4.65717 18.2806 3.53674 17.0026 2.80808 15.5002C2.78428 15.4522 2.77981 15.3969 2.79559 15.3456C2.81138 15.2944 2.8462 15.2511 2.8929 15.2248C3.86576 14.6777 5.10828 14.3797 6.2822 14.3797C7.17233 14.3797 7.88967 14.4844 8.51747 14.6876C8.58864 14.711 8.65223 14.7531 8.7016 14.8095C8.75098 14.8658 8.78433 14.9344 8.79818 15.0081C8.81203 15.0817 8.80587 15.1577 8.78035 15.2282C8.75483 15.2986 8.71088 15.3609 8.65308 15.4086C7.43046 16.4035 6.64244 17.636 6.27225 19.1131C6.26671 19.1357 6.25582 19.1566 6.2405 19.1741C6.22517 19.1916 6.20586 19.2052 6.1842 19.2137C6.16253 19.2221 6.13915 19.2253 6.11601 19.2228C6.09288 19.2203 6.07068 19.2123 6.05129 19.1995ZM11.1088 20.7153C9.92994 20.7165 8.76192 20.4904 7.6687 20.0493C7.62403 20.0309 7.58711 19.9975 7.5642 19.955C7.5413 19.9124 7.53382 19.8632 7.54304 19.8158C7.56398 19.7084 7.58702 19.6105 7.60744 19.5289C7.98025 18.0402 8.90389 16.8061 10.2778 15.9589C11.4973 15.2075 13.0529 14.7939 14.651 14.7939C16.2825 14.7939 17.7926 15.1908 19.022 15.9411C19.0533 15.9607 19.0758 15.9917 19.0847 16.0276C19.0936 16.0634 19.0882 16.1013 19.0697 16.1333C18.2589 17.5261 17.0972 18.6822 15.7004 19.4862C14.3036 20.2901 12.7204 20.7139 11.1088 20.7153Z" fill="#5B3485"/>
<path d="M6.13606 13.5566C6.03986 13.5514 5.94406 13.5405 5.84912 13.5242C5.94406 13.5405 6.03986 13.5514 6.13606 13.5566Z" fill="#18A496"/>
<path d="M4.75405 7.42261C4.48104 7.57113 4.23356 7.7624 4.021 7.98915C3.87752 8.14168 3.75127 8.30955 3.64453 8.48971C3.75127 8.30955 3.87752 8.14168 4.021 7.98915C4.23356 7.7624 4.48104 7.57113 4.75405 7.42261Z" fill="#18A496"/>
<path d="M9.02148 11.5989C9.19741 11.2041 9.30369 10.7818 9.33565 10.3507C9.3435 10.2381 9.34612 10.1271 9.3435 10.0166C9.34629 10.1266 9.34367 10.2379 9.33565 10.3507C9.30369 10.7818 9.19741 11.2041 9.02148 11.5989Z" fill="#18A496"/>
<path d="M4.75439 7.42277C4.89075 7.34825 5.03273 7.28453 5.17904 7.23218C5.03273 7.28453 4.89075 7.34825 4.75439 7.42277Z" fill="#18A496"/>
<path d="M5.56926 13.4599C5.43083 13.4199 5.29569 13.3693 5.16504 13.3086C5.29569 13.3693 5.43083 13.4199 5.56926 13.4599Z" fill="#18A496"/>
<path d="M3.2417 10.5149C3.38098 11.7192 4.09308 12.747 5.034 13.2439C4.09099 12.747 3.38098 11.7171 3.2417 10.5149Z" fill="#18A496"/>
<path d="M11.0218 9.56253C11.0872 10.5636 11.4937 11.5121 12.1738 12.2497C12.5005 12.6034 12.893 12.8901 13.3294 13.0937C12.893 12.8901 12.5005 12.6034 12.1738 12.2497C11.4937 11.5121 11.0872 10.5636 11.0218 9.56253C11.0124 9.42709 11.0093 9.29305 11.0124 9.1604C11.0093 9.2913 11.0124 9.42534 11.0218 9.56253Z" fill="#18A496"/>
<path d="M13.6485 13.2185C13.5399 13.1817 13.4333 13.1392 13.3291 13.0913C13.4333 13.1392 13.5399 13.1817 13.6485 13.2185Z" fill="#18A496"/>
<path d="M11.1069 8.38661C11.2392 7.77512 11.5338 7.21059 11.9599 6.75244C11.5338 7.21059 11.2392 7.77512 11.1069 8.38661Z" fill="#18A496"/>
<path d="M17.3389 6.75924C17.8983 7.3639 18.2313 8.14348 18.2814 8.96571C18.2313 8.14348 17.8983 7.3639 17.3389 6.75924C16.9586 6.35384 16.487 6.04509 15.9634 5.85864C16.487 6.04509 16.9586 6.35384 17.3389 6.75924Z" fill="#18A496"/>
<path d="M18.2824 9.5625C18.2421 10.1257 18.0964 10.6762 17.853 11.1857C18.0964 10.6762 18.2421 10.1257 18.2824 9.5625Z" fill="#18A496"/>
<path d="M11.0122 9.15776C11.0163 8.96222 11.0348 8.76726 11.0677 8.57446C11.0348 8.76726 11.0163 8.96222 11.0122 9.15776Z" fill="#18A496"/>
<path d="M8.53548 7.99438C9.04572 8.54516 9.33326 9.26579 9.34236 10.0165C9.33326 9.26579 9.04572 8.54516 8.53548 7.99438C8.10549 7.53524 7.54143 7.2237 6.92383 7.10425C7.54143 7.2237 8.10549 7.53524 8.53548 7.99438Z" fill="#18A496"/>
<path d="M7.65446 13.1755C7.48866 13.2743 7.31322 13.3559 7.13086 13.419C7.31322 13.3559 7.48866 13.2743 7.65446 13.1755Z" fill="#18A496"/>
<path d="M3.22998 9.84805C3.25546 9.47444 3.34768 9.10842 3.50226 8.76733C3.34768 9.10842 3.25546 9.47444 3.22998 9.84805Z" fill="#18A496"/>
<path d="M7.89788 13.012C7.81881 13.0706 7.73713 13.123 7.65283 13.1753C7.73713 13.123 7.81881 13.0706 7.89788 13.012Z" fill="#18A496"/>
<path d="M9.02317 11.5989C8.93893 11.789 8.83856 11.9715 8.72314 12.1445C8.83856 11.9715 8.93893 11.789 9.02317 11.5989Z" fill="#18A496"/>
<path d="M3.5 8.76726C3.54361 8.67226 3.59219 8.57963 3.64556 8.48975C3.59219 8.57963 3.54361 8.67226 3.5 8.76726Z" fill="#18A496"/>
<path d="M7.89795 13.0121C8.22184 12.7737 8.50118 12.48 8.72315 12.1445C8.50118 12.48 8.22184 12.7737 7.89795 13.0121Z" fill="#18A496"/>
</svg>
