<svg width="14" height="14" viewBox="0 0 14 14" fill="none" xmlns="http://www.w3.org/2000/svg">
<g id="Frame 1000004213" clip-path="url(#clip0_4035_1495)">
<g id="Group">
<path id="Vector" d="M7.57832 7.58245C8.04243 7.58245 8.48753 7.76681 8.8157 8.09499C9.14388 8.42316 9.32824 8.86826 9.32824 9.33237L9.32708 10.2056C9.44724 12.3481 7.79706 13.4167 4.73645 13.4167C1.68634 13.4167 0 12.3621 0 10.2359V9.33237C0 8.86826 0.184366 8.42316 0.51254 8.09499C0.840714 7.76681 1.28581 7.58245 1.74992 7.58245H7.57832ZM12.2448 7.58245C12.7089 7.58245 13.154 7.76681 13.4822 8.09499C13.8103 8.42316 13.9947 8.86826 13.9947 9.33237V9.94659C14.0997 11.8686 12.6414 12.8322 9.9763 12.8322C9.61465 12.8322 9.27458 12.8147 8.95668 12.7797C9.58315 12.2011 9.91796 11.4165 9.9168 10.4249L9.90922 10.1729L9.91155 9.33237C9.91187 9.00124 9.84153 8.67387 9.70523 8.3721C9.56893 8.07033 9.36981 7.80112 9.12117 7.58245H12.2454H12.2448ZM4.66645 0.582764C5.44012 0.582764 6.1821 0.890102 6.72917 1.43717C7.27623 1.98423 7.58357 2.72621 7.58357 3.49988C7.58357 4.27355 7.27623 5.01553 6.72917 5.56259C6.1821 6.10966 5.44012 6.417 4.66645 6.417C3.89279 6.417 3.15081 6.10966 2.60374 5.56259C2.05668 5.01553 1.74934 4.27355 1.74934 3.49988C1.74934 2.72621 2.05668 1.98423 2.60374 1.43717C3.15081 0.890102 3.89279 0.582764 4.66645 0.582764ZM10.4995 1.74938C11.1183 1.74938 11.7118 1.9952 12.1494 2.43276C12.5869 2.87033 12.8327 3.46379 12.8327 4.0826C12.8327 4.70142 12.5869 5.29488 12.1494 5.73245C11.7118 6.17001 11.1183 6.41583 10.4995 6.41583C9.88071 6.41583 9.28725 6.17001 8.84968 5.73245C8.41212 5.29488 8.1663 4.70142 8.1663 4.0826C8.1663 3.46379 8.41212 2.87033 8.84968 2.43276C9.28725 1.9952 9.88071 1.74938 10.4995 1.74938Z" fill="#FE7439"/>
</g>
</g>
<defs>
<clipPath id="clip0_4035_1495">
<rect width="14" height="14" fill="white" transform="translate(0 -0.000244141)"/>
</clipPath>
</defs>
</svg>
