<svg width="18" height="18" viewBox="0 0 18 18" fill="none" xmlns="http://www.w3.org/2000/svg">
<path d="M8.5225 0.386475C3.82317 0.386475 0 4.20959 0 8.90886C0 13.6081 3.82317 17.4313 8.5225 17.4313C13.2218 17.4313 17.0449 13.6081 17.0449 8.90886C17.0449 4.20959 13.2218 0.386475 8.5225 0.386475ZM8.5225 16.0341C4.59354 16.0341 1.39711 12.8378 1.39711 8.90886C1.39711 4.97996 4.59354 1.78359 8.5225 1.78359C12.4514 1.78359 15.6478 4.97996 15.6478 8.90886C15.6478 12.8378 12.4514 16.0341 8.5225 16.0341Z" fill="#F16232"/>
<path d="M12.2092 5.63817L7.14908 10.6983L4.83557 8.38483C4.56274 8.11206 4.12047 8.11206 3.84765 8.38483C3.57487 8.65766 3.57487 9.09993 3.84765 9.37276L6.65512 12.1802C6.79153 12.3166 6.97031 12.3848 7.14908 12.3848C7.32786 12.3848 7.50663 12.3166 7.64304 12.1802L13.1971 6.62615C13.4699 6.35332 13.4699 5.91105 13.1971 5.63822C12.9243 5.36539 12.482 5.36539 12.2092 5.63817Z" fill="#F16232"/>
</svg>
