<svg width="14" height="17" viewBox="0 0 14 17" fill="none" xmlns="http://www.w3.org/2000/svg">
<mask id="mask0_3758_14642" style="mask-type:luminance" maskUnits="userSpaceOnUse" x="0" y="0" width="14" height="17">
<path d="M0 0.341797H13.5218V16.3418H0V0.341797Z" fill="white"/>
</mask>
<g mask="url(#mask0_3758_14642)">
<path d="M1.98058 4.56055H0.395996V14.9355H4.0293C4.74672 14.9355 5.43477 15.2728 5.94205 15.873H7.57946C8.08674 15.2728 8.7748 14.9355 9.49222 14.9355H13.1255V5.49805H11.5409" stroke="#F16232" stroke-width="1.00719" stroke-miterlimit="10"/>
<path d="M6.76113 4.56055H7.00941C7.73037 3.95114 8.58607 3.62305 9.48924 3.62305H11.5413V13.0605H9.48924C8.58607 13.0605 7.73037 13.3886 7.00941 13.998H6.51285C5.79189 13.3886 4.93619 13.0605 4.03302 13.0605H1.98096V2.68555H3.56554" stroke="#F16232" stroke-width="1.00719" stroke-miterlimit="10"/>
<path d="M3.56543 0.810547V10.248C5.31574 10.248 6.76102 11.927 6.76102 13.998V4.56055C6.76102 2.48945 5.31574 0.810547 3.56543 0.810547Z" stroke="#F16232" stroke-width="1.00719" stroke-miterlimit="10"/>
</g>
</svg>
