<svg width="15" height="15" viewBox="0 0 15 15" fill="none" xmlns="http://www.w3.org/2000/svg">
<path d="M10.1417 6.9652L7.1308 4.77653C7.02031 4.69643 6.87362 4.68437 6.75251 4.74661C6.63044 4.80837 6.5542 4.93382 6.5542 5.06941V9.44532C6.5542 9.58235 6.63044 9.70733 6.75251 9.76909C6.80414 9.79514 6.8606 9.80817 6.91753 9.80817C6.99184 9.80817 7.06711 9.78453 7.1308 9.73772L10.1417 7.55098C10.2367 7.48101 10.2922 7.37293 10.2922 7.25809C10.2927 7.14132 10.2358 7.03372 10.1417 6.9652Z" fill="#64748B"/>
<path d="M7.75024 0C3.74538 0 0.5 3.24538 0.5 7.25024C0.5 11.2537 3.74538 14.4981 7.75024 14.4981C11.7541 14.4981 15 11.2532 15 7.25024C15.0005 3.24538 11.7541 0 7.75024 0ZM7.75024 13.2884C4.41511 13.2884 1.71111 10.5859 1.71111 7.25024C1.71111 3.91608 4.41511 1.21014 7.75024 1.21014C11.0849 1.21014 13.7884 3.91559 13.7884 7.25024C13.7889 10.5859 11.0849 13.2884 7.75024 13.2884Z" fill="#64748B"/>
</svg>
