<svg xmlns="http://www.w3.org/2000/svg" data-name="Layer 1" viewBox="0 0 64 64" id="gift-box"><path fill="#1c1b1a" d="M62.49,25.09H37.63a.49.49,0,1,1,0-1H62.49a.53.53,0,0,0,.53-.53v-9.1a.53.53,0,0,0-.53-.52h-61a.53.53,0,0,0-.53.52v9.1a.53.53,0,0,0,.53.53H26.39a.49.49,0,0,1,0,1H1.51A1.52,1.52,0,0,1,0,23.58v-9.1A1.51,1.51,0,0,1,1.51,13h61A1.51,1.51,0,0,1,64,14.48v9.1A1.52,1.52,0,0,1,62.49,25.09Z"></path><path fill="#1c1b1a" d="M37.63,44a.52.52,0,0,1-.32-.11L32,39.41,26.7,43.9a.51.51,0,0,1-.53.07.5.5,0,0,1-.28-.45V13.47a.49.49,0,0,1,1,0v29l4.82-4.08a.5.5,0,0,1,.63,0l4.82,4.08v-29a.49.49,0,0,1,1,0V43.52a.49.49,0,0,1-.29.45A.45.45,0,0,1,37.63,44Z"></path><path fill="#1c1b1a" d="M58.18 61H5.83A2.53 2.53 0 0 1 3.3 58.45V24.6a.5.5 0 0 1 1 0V58.45A1.54 1.54 0 0 0 5.83 60H58.18a1.54 1.54 0 0 0 1.54-1.54V24.6a.49.49 0 0 1 1 0V58.45A2.52 2.52 0 0 1 58.18 61zM50 14a.52.52 0 0 1-.35-.14.5.5 0 0 1 0-.7 5.36 5.36 0 0 0-5.36-8.89c-2.56.78-10.1 7.76-12 9.59a.49.49 0 1 1-.69-.7C31.75 13 40.81 4.27 44 3.29a6.34 6.34 0 0 1 6.34 10.52A.5.5 0 0 1 50 14z"></path><path fill="#1c1b1a" d="M14,14a.49.49,0,0,1-.35-.15A6.34,6.34,0,0,1,20,3.29c3.23,1,12.29,9.74,12.38,9.83a.49.49,0,1,1-.69.7C29.78,12,22.25,5,19.69,4.23a5.36,5.36,0,0,0-5.36,8.89.5.5,0,0,1,0,.7A.52.52,0,0,1,14,14Z"></path></svg>