<svg xmlns="http://www.w3.org/2000/svg" width="48" height="48" id="home"><g fill="none" fill-rule="evenodd"><path d="M0 0h48v48H0z"></path><path fill="#000" fill-rule="nonzero" d="M19 45c0 .552-.456 1-.996 1h-9.01A3.001 3.001 0 0 1 6 43.006V16.74l-3.604 2.507a1 1 0 1 1-1.142-1.642L22.361 2.922c.908-.631 2.373-.63 3.278 0l21.107 14.683a1 1 0 1 1-1.142 1.642L42 16.74v26.266A2.994 2.994 0 0 1 39.006 46h-9.01A.996.996 0 0 1 29 45V30a1 1 0 0 0-1.009-1H20.01c-.557 0-1.009.45-1.009 1v15Zm-2-15c0-1.657 1.35-3 3.009-3h7.982A3 3 0 0 1 31 30v14h8c.543 0 1-.445 1-.993V15.349L24.825 4.792c-.454-.316-1.194-.317-1.65 0L8 15.349v27.658c0 .547.448.993 1 .993h8V30Z"></path></g></svg>