<svg width="32" height="32" viewBox="0 0 32 32" fill="none" xmlns="http://www.w3.org/2000/svg">
<path d="M22.754 10.5937C22.754 6.87891 19.7428 3.86768 16.0281 3.86768C12.3133 3.86768 9.30206 6.87891 9.30206 10.5937C9.30206 14.3084 12.3133 17.3197 16.0281 17.3197C19.741 17.3154 22.7498 14.3066 22.754 10.5937ZM10.1152 10.5937C10.1152 7.32807 12.7625 4.68077 16.0281 4.68077C19.2936 4.68077 21.941 7.32807 21.941 10.5937C21.941 13.8593 19.2936 16.5066 16.0281 16.5066C12.764 16.5029 10.1189 13.8577 10.1152 10.5937Z" fill="black"/>
<path d="M18.975 10.5938C18.975 8.96627 17.6556 7.64685 16.0281 7.64685C14.4006 7.64685 13.0811 8.96627 13.0811 10.5938C13.0811 12.2213 14.4006 13.5407 16.0281 13.5407C17.6548 13.5388 18.9731 12.2205 18.975 10.5938ZM13.8942 10.5938C13.8942 9.41516 14.8495 8.45994 16.0281 8.45994C17.2064 8.45994 18.1619 9.41516 18.1619 10.5938C18.1619 11.7721 17.2064 12.7276 16.0281 12.7276C14.85 12.7263 13.8956 11.7716 13.8942 10.5938Z" fill="black"/>
<path d="M28.7268 29.034C28.8477 28.9189 28.8856 28.7416 28.8228 28.5867L23.8699 16.3822C23.9411 16.3465 24.0171 16.3205 24.0954 16.3054L24.5838 16.2104C25.1041 16.1093 25.5464 15.7684 25.7767 15.2909C26.0072 14.8134 25.999 14.2552 25.7547 13.7849L25.5228 13.3384C25.3259 12.9618 25.4313 12.498 25.7719 12.2437L26.1803 11.9369C26.6032 11.619 26.8523 11.1204 26.8518 10.5913C26.8515 10.0619 26.6019 9.56382 26.1784 9.24647L25.7735 8.94315C25.432 8.68906 25.3262 8.22455 25.5234 7.84765L25.7544 7.40246C25.999 6.93213 26.0072 6.37393 25.7767 5.89645C25.5461 5.41897 25.1041 5.07806 24.5835 4.97696L24.0952 4.88194C23.6764 4.802 23.3787 4.42854 23.3932 4.00241L23.4091 3.50005C23.4258 2.96991 23.1913 2.46305 22.7765 2.13246C22.3618 1.80188 21.8152 1.68622 21.3023 1.82067L20.8177 1.94772C20.4055 2.05677 19.9757 1.84979 19.8039 1.45965L19.5988 0.99885C19.3836 0.514225 18.9525 0.159556 18.4353 0.0420395C17.9184 -0.0757422 17.376 0.0571261 16.9724 0.400943L16.5908 0.725438C16.2668 1.00308 15.789 1.00308 15.4651 0.725438L15.0834 0.400943C14.6798 0.0573908 14.1375 -0.0757422 13.6205 0.0420395C13.1036 0.159821 12.6725 0.514225 12.4573 0.99885L12.2522 1.46018C12.0804 1.85005 11.6505 2.05703 11.2387 1.94798L10.7538 1.82067C10.2409 1.68622 9.69431 1.80188 9.27956 2.13246C8.86481 2.46305 8.6303 2.96991 8.64698 3.49979L8.66286 4.00241C8.67741 4.42854 8.37939 4.802 7.96067 4.88194L7.47234 4.97696C6.95198 5.07806 6.5097 5.41897 6.27917 5.89645C6.0489 6.37393 6.0571 6.93213 6.3014 7.40246L6.53273 7.84765C6.72992 8.22482 6.62378 8.68906 6.28261 8.94315L5.87765 9.24647C5.4539 9.56382 5.20431 10.0619 5.20405 10.5913C5.20378 11.1204 5.45258 11.619 5.8758 11.9369L6.2842 12.2437C6.62457 12.498 6.73018 12.9618 6.53326 13.3384L6.3014 13.7849C6.0571 14.2552 6.0489 14.8134 6.27917 15.2909C6.5097 15.7684 6.95198 16.1093 7.47234 16.2104L7.96067 16.3054C8.04139 16.321 8.11974 16.3483 8.19279 16.3859L3.23299 28.5867C3.17 28.7413 3.20811 28.9186 3.32881 29.0338C3.44976 29.1489 3.62842 29.1788 3.78008 29.1087L8.44635 26.9534L10.2766 31.7473C10.3361 31.9018 10.4862 32.0027 10.6519 31.9998H10.6567C10.8202 32.0037 10.9698 31.9069 11.033 31.756L15.6983 20.315C15.9097 20.2285 16.1469 20.2293 16.3578 20.3174L21.0228 31.7549C21.0863 31.9061 21.2353 32.0032 21.3994 31.9998H21.4042C21.5696 32.0027 21.7194 31.9018 21.7792 31.7473L23.6095 26.9489L28.2757 29.1066C28.4266 29.1772 28.6055 29.1484 28.7268 29.034ZM10.6694 30.5035L9.0514 26.2571C9.01117 26.152 8.92912 26.0681 8.82484 26.0255C8.72056 25.9828 8.6033 25.9855 8.50114 26.0329L4.37428 27.9388L8.65598 17.4062L8.64724 17.6873C8.63057 18.2175 8.86507 18.7243 9.27982 19.0549C9.69457 19.3855 10.2409 19.5009 10.7541 19.3664L11.2387 19.2396C11.6505 19.1303 12.0806 19.337 12.2524 19.7272L12.4573 20.1885C12.8051 20.9688 13.6819 21.3655 14.4977 21.1117L10.6694 30.5035ZM15.1686 19.6785C15.1612 19.683 15.1541 19.6875 15.1469 19.692C15.0739 19.7367 15.0043 19.787 14.9386 19.8423L14.557 20.1668C14.3484 20.3444 14.0684 20.413 13.8013 20.3524C13.5345 20.2915 13.3117 20.1083 13.2005 19.8582L12.9954 19.3969C12.6627 18.642 11.83 18.2413 11.0325 18.453L10.5479 18.5798C10.2827 18.6494 10.0005 18.5896 9.78641 18.4189C9.57229 18.2482 9.45107 17.9864 9.4598 17.7127L9.47542 17.2101C9.50374 16.3854 8.92674 15.6628 8.11603 15.5077L7.6277 15.4129C7.35879 15.3605 7.13037 15.1843 7.01127 14.9376C6.89216 14.6909 6.89666 14.4024 7.02291 14.1594L7.25504 13.7129C7.63617 12.9837 7.43184 12.0857 6.77253 11.5934L6.36413 11.2866C6.14551 11.1225 6.01714 10.865 6.01714 10.5916C6.0174 10.3182 6.1463 10.0609 6.36492 9.89705L6.77015 9.59373C7.43078 9.10169 7.63591 8.20258 7.25424 7.47287L7.02291 7.02768C6.89693 6.78471 6.89269 6.49647 7.01153 6.24979C7.13064 6.00338 7.35905 5.82737 7.6277 5.77496L8.11603 5.67994C8.92701 5.5251 9.504 4.802 9.47542 3.977L9.4598 3.47465C9.45133 3.20097 9.57229 2.93894 9.78641 2.76822C10.0008 2.5975 10.2829 2.53795 10.5479 2.6073L11.0325 2.73434C11.83 2.94608 12.6629 2.54536 12.9954 1.79024L13.2002 1.3289C13.3114 1.07878 13.5343 0.895625 13.801 0.834749C14.0681 0.773874 14.3481 0.84269 14.5567 1.02029L14.9384 1.34505C15.5654 1.88234 16.4907 1.88234 17.118 1.34505L17.4994 1.02029C17.708 0.84269 17.988 0.774138 18.255 0.834749C18.5221 0.895625 18.7447 1.07878 18.8559 1.32917L19.0607 1.7905C19.3934 2.54536 20.2261 2.94582 21.0236 2.73434L21.5082 2.6073C21.7734 2.53795 22.0556 2.59777 22.2697 2.76849C22.4838 2.9392 22.605 3.20097 22.5963 3.47465L22.5807 3.977C22.5521 4.80227 23.1291 5.5251 23.9401 5.68021L24.4284 5.77496C24.697 5.82737 24.9255 6.00338 25.0446 6.25006C25.1637 6.49647 25.1594 6.78471 25.0332 7.02794L24.8018 7.47287C24.4202 8.20285 24.6256 9.10196 25.2862 9.59373L25.6912 9.89705C25.9098 10.0609 26.0387 10.3182 26.039 10.5916C26.0392 10.865 25.9106 11.1225 25.692 11.2866L25.2836 11.5934C24.6242 12.0854 24.4199 12.9837 24.8013 13.7129L25.0329 14.1594C25.1592 14.4024 25.1634 14.6906 25.0443 14.9373C24.9255 15.1837 24.697 15.3597 24.4281 15.4121L23.9401 15.5069C23.1291 15.662 22.5521 16.3851 22.5804 17.2101L22.5963 17.7125C22.6048 17.9861 22.4838 18.2479 22.2694 18.4186C22.0553 18.5893 21.7731 18.6492 21.5082 18.5798L21.0236 18.4528C20.2261 18.2413 19.3932 18.6417 19.0607 19.3969L18.8559 19.8582C18.7447 20.1086 18.5218 20.2917 18.255 20.3526C17.988 20.4132 17.708 20.3447 17.4994 20.1671L17.1177 19.8423C17.0521 19.787 16.9822 19.7367 16.9089 19.6917C16.9025 19.6875 16.8962 19.6835 16.8896 19.6795C16.3605 19.3598 15.6977 19.3593 15.1681 19.6785H15.1686ZM23.5552 26.0329C23.453 25.9855 23.3358 25.9828 23.2315 26.0255C23.1272 26.0681 23.0452 26.152 23.0049 26.2571L21.387 30.5035L17.5587 21.1101C17.7199 21.1615 17.8879 21.1879 18.0573 21.1882C18.1846 21.1882 18.3117 21.1739 18.4361 21.1453C18.9538 21.0297 19.3857 20.6742 19.5988 20.1885L19.8037 19.7272C19.9754 19.337 20.4055 19.1303 20.8174 19.2396L21.302 19.3664C21.8152 19.5009 22.3615 19.3855 22.7763 19.0549C23.191 18.7243 23.4255 18.2175 23.4088 17.6873L23.3996 17.3858L27.6823 27.9393L23.5552 26.0329Z" fill="black"/>
</svg>
