<svg width="33" height="32" viewBox="0 0 33 32" fill="none" xmlns="http://www.w3.org/2000/svg">
<path d="M13.597 15.04H7.19729C6.59889 15.04 6.03601 14.8064 5.61265 14.3818C5.19697 13.9696 4.95697 13.3924 4.95697 12.8V6.40003C4.95697 5.80163 5.18993 5.23875 5.61265 4.81507C6.03409 4.39267 6.59697 4.16003 7.19729 4.16003H13.597C14.197 4.16003 14.7598 4.39267 15.1816 4.81507C15.6043 5.23907 15.837 5.80163 15.837 6.40003V12.8C15.837 13.392 15.5973 13.9693 15.1794 14.384C14.7576 14.8064 14.195 15.04 13.597 15.04ZM7.19729 5.44003C6.93937 5.44003 6.69841 5.53923 6.51889 5.71939C6.33681 5.90115 6.23697 6.14307 6.23697 6.40003V12.8C6.23697 13.0532 6.33873 13.2992 6.51633 13.4752C6.70065 13.6599 6.94161 13.76 7.19729 13.76H13.597C13.8527 13.76 14.0936 13.6599 14.2757 13.4775C14.4552 13.2996 14.557 13.0532 14.557 12.8V6.40003C14.557 6.14307 14.4571 5.90115 14.2754 5.71939C14.0958 5.53923 13.8549 5.44003 13.597 5.44003H7.19729Z" fill="black"/>
<path d="M13.597 27.8401H7.19729C6.59889 27.8401 6.03601 27.6065 5.61265 27.1818C5.19697 26.7697 4.95697 26.1924 4.95697 25.6001V19.2001C4.95697 18.6017 5.18993 18.0388 5.61265 17.6151C6.03409 17.1927 6.59697 16.9601 7.19729 16.9601H13.597C14.197 16.9601 14.7598 17.1927 15.1816 17.6151C15.6043 18.0391 15.837 18.6017 15.837 19.2001V25.6001C15.837 26.1921 15.5973 26.7694 15.1794 27.1841C14.7576 27.6065 14.195 27.8401 13.597 27.8401ZM7.19729 18.2401C6.93937 18.2401 6.69841 18.3393 6.51889 18.5194C6.33681 18.7012 6.23697 18.9431 6.23697 19.2001V25.6001C6.23697 25.8532 6.33873 26.0993 6.51633 26.2753C6.70065 26.4599 6.94161 26.5601 7.19729 26.5601H13.597C13.8527 26.5601 14.0936 26.4599 14.2757 26.2775C14.4552 26.0996 14.557 25.8532 14.557 25.6001V19.2001C14.557 18.9431 14.4571 18.7012 14.2754 18.5194C14.0958 18.3393 13.8549 18.2401 13.597 18.2401H7.19729Z" fill="black"/>
<path d="M26.397 15.04H19.9973C19.3989 15.04 18.836 14.8064 18.4126 14.3818C17.997 13.9696 17.757 13.3924 17.757 12.8V6.40003C17.757 5.80163 17.9899 5.23875 18.4126 4.81507C18.8341 4.39267 19.397 4.16003 19.9973 4.16003H26.397C26.997 4.16003 27.5598 4.39267 27.9816 4.81507C28.4043 5.23907 28.637 5.80163 28.637 6.40003V12.8C28.637 13.392 28.3973 13.9693 27.9794 14.384C27.5576 14.8064 26.995 15.04 26.397 15.04ZM19.9973 5.44003C19.7394 5.44003 19.4984 5.53923 19.3189 5.71939C19.1368 5.90115 19.037 6.14307 19.037 6.40003V12.8C19.037 13.0532 19.1387 13.2992 19.3163 13.4752C19.5006 13.6599 19.7416 13.76 19.9973 13.76H26.397C26.6526 13.76 26.8936 13.6599 27.0757 13.4775C27.2552 13.2996 27.357 13.0532 27.357 12.8V6.40003C27.357 6.14307 27.2571 5.90115 27.0754 5.71939C26.8958 5.53923 26.6549 5.44003 26.397 5.44003H19.9973Z" fill="black"/>
<path d="M26.397 27.8401H19.9973C19.3989 27.8401 18.836 27.6065 18.4126 27.1818C17.997 26.7697 17.757 26.1924 17.757 25.6001V19.2001C17.757 18.6017 17.9899 18.0388 18.4126 17.6151C18.8341 17.1927 19.397 16.9601 19.9973 16.9601H26.397C26.997 16.9601 27.5598 17.1927 27.9816 17.6151C28.4043 18.0391 28.637 18.6017 28.637 19.2001V25.6001C28.637 26.1921 28.3973 26.7694 27.9794 27.1841C27.5576 27.6065 26.995 27.8401 26.397 27.8401ZM19.9973 18.2401C19.7394 18.2401 19.4984 18.3393 19.3189 18.5194C19.1368 18.7012 19.037 18.9431 19.037 19.2001V25.6001C19.037 25.8532 19.1387 26.0993 19.3163 26.2753C19.5006 26.4599 19.7416 26.5601 19.9973 26.5601H26.397C26.6526 26.5601 26.8936 26.4599 27.0757 26.2775C27.2552 26.0996 27.357 25.8532 27.357 25.6001V19.2001C27.357 18.9431 27.2571 18.7012 27.0754 18.5194C26.8958 18.3393 26.6549 18.2401 26.397 18.2401H19.9973Z" fill="black"/>
</svg>
