<svg width="33" height="32" viewBox="0 0 33 32" fill="none" xmlns="http://www.w3.org/2000/svg">
<g clip-path="url(#clip0_1202_3199)">
<path d="M30.3441 3H2.84415C2.38018 3.00051 1.93535 3.18505 1.60728 3.51313C1.2792 3.84121 1.09466 4.28603 1.09415 4.75V23.25C1.09466 23.714 1.2792 24.1588 1.60728 24.4869C1.93535 24.8149 2.38018 24.9995 2.84415 25H12.9841L12.6841 26.5H10.5941C10.4615 26.5 10.3344 26.5527 10.2406 26.6464C10.1468 26.7402 10.0941 26.8674 10.0941 27V28.5C10.0941 28.6326 10.1468 28.7598 10.2406 28.8536C10.3344 28.9473 10.4615 29 10.5941 29H22.5941C22.7268 29 22.8539 28.9473 22.9477 28.8536C23.0415 28.7598 23.0941 28.6326 23.0941 28.5V27C23.0941 26.8674 23.0415 26.7402 22.9477 26.6464C22.8539 26.5527 22.7268 26.5 22.5941 26.5H20.5041L20.2041 25H30.3441C30.8081 24.9995 31.2529 24.8149 31.581 24.4869C31.9091 24.1588 32.0936 23.714 32.0941 23.25V4.75C32.0936 4.28603 31.9091 3.84121 31.581 3.51313C31.2529 3.18505 30.8081 3.00051 30.3441 3ZM22.0941 27.5V28H11.0941V27.5H22.0941ZM13.7041 26.5L14.0041 25H19.1841L19.4841 26.5H13.7041ZM31.0941 23.25C31.094 23.4489 31.0149 23.6395 30.8743 23.7801C30.7337 23.9208 30.543 23.9998 30.3441 24H2.84415C2.64529 23.9998 2.45462 23.9208 2.314 23.7801C2.17338 23.6395 2.09431 23.4489 2.09415 23.25V22H31.0941V23.25ZM31.0941 21H2.09415V4.75C2.09431 4.55114 2.17338 4.36047 2.314 4.21985C2.45462 4.07924 2.64529 4.00017 2.84415 4H30.3441C30.543 4.00017 30.7337 4.07924 30.8743 4.21985C31.0149 4.36047 31.094 4.55114 31.0941 4.75V21Z" fill="black"/>
<path d="M17.0941 22.5H16.0941C15.9615 22.5 15.8344 22.5527 15.7406 22.6464C15.6468 22.7402 15.5941 22.8674 15.5941 23C15.5941 23.1326 15.6468 23.2598 15.7406 23.3536C15.8344 23.4473 15.9615 23.5 16.0941 23.5H17.0941C17.2268 23.5 17.3539 23.4473 17.4477 23.3536C17.5415 23.2598 17.5941 23.1326 17.5941 23C17.5941 22.8674 17.5415 22.7402 17.4477 22.6464C17.3539 22.5527 17.2268 22.5 17.0941 22.5Z" fill="black"/>
</g>
<defs>
<clipPath id="clip0_1202_3199">
<rect width="32" height="32" fill="white" transform="translate(0.594147)"/>
</clipPath>
</defs>
</svg>
