<svg xmlns="http://www.w3.org/2000/svg" xmlns:xlink="http://www.w3.org/1999/xlink" width="36" height="36" viewBox="0 0 36 36">
  <defs>
    <clipPath id="clip-path">
      <circle id="Ellipse_2419" data-name="Ellipse 2419" cx="18" cy="18" r="18" fill="#eaeff4"/>
    </clipPath>
  </defs>
  <g id="Mask_Group_886" data-name="Mask Group 886" clip-path="url(#clip-path)">
    <g id="Layer_2" data-name="Layer 2" transform="translate(10 10)">
      <g id="Black_And_White" data-name="Black And White">
        <g id="_26.Question_mark" data-name="26.Question mark">
          <path id="Path_76714" data-name="Path 76714" d="M14.737,0H1.263A1.263,1.263,0,0,0,0,1.263V14.737A1.263,1.263,0,0,0,1.263,16H14.737A1.263,1.263,0,0,0,16,14.737V1.263A1.263,1.263,0,0,0,14.737,0ZM8.688,11.942a1.2,1.2,0,0,1-1.505,0,.932.932,0,0,1,0-1.376,1.2,1.2,0,0,1,1.505,0,.932.932,0,0,1,0,1.376Zm1.788-5.053a2.864,2.864,0,0,1-.6.787l-.65.6a1.536,1.536,0,0,0-.384.547,2.169,2.169,0,0,0-.119.71H7.106a3.694,3.694,0,0,1,.186-1.3,2.037,2.037,0,0,1,.6-.829,4.012,4.012,0,0,0,.632-.642,1.052,1.052,0,0,0,.218-.642q0-.855-.737-.855a.684.684,0,0,0-.534.249,1.052,1.052,0,0,0-.222.673H5.336a2.284,2.284,0,0,1,.711-1.768A2.84,2.84,0,0,1,8.016,3.79a2.951,2.951,0,0,1,1.957.588,2.052,2.052,0,0,1,.7,1.653,1.935,1.935,0,0,1-.186.855Z" fill="#5d676e"/>
        </g>
      </g>
    </g>
  </g>
</svg>
