<svg xmlns="http://www.w3.org/2000/svg" xmlns:xlink="http://www.w3.org/1999/xlink" width="36" height="36" viewBox="0 0 36 36">
  <defs>
    <clipPath id="clip-path">
      <circle id="Ellipse_2418" data-name="Ellipse 2418" cx="18" cy="18" r="18" fill="#eaeff4"/>
    </clipPath>
  </defs>
  <g id="Mask_Group_885" data-name="Mask Group 885" clip-path="url(#clip-path)">
    <g id="Layer_2" data-name="Layer 2" transform="translate(9.002 8.625)">
      <path id="Path_76712" data-name="Path 76712" d="M16.041,7.159a2.09,2.09,0,0,1-1.648-2.829.981.981,0,0,0-.293-1.1,7.864,7.864,0,0,0-2.346-1.359.986.986,0,0,0-1.114.309,2.085,2.085,0,0,1-3.284,0,.986.986,0,0,0-1.114-.309A7.9,7.9,0,0,0,4.056,3.091a1,1,0,0,0-.309,1.135A2.079,2.079,0,0,1,2.015,7.084a.986.986,0,0,0-.864.794A7.539,7.539,0,0,0,1,9.373a7.635,7.635,0,0,0,.1,1.253.986.986,0,0,0,.872.826,2.079,2.079,0,0,1,1.693,2.935.971.971,0,0,0,.272,1.163,7.923,7.923,0,0,0,2.324,1.339,1.067,1.067,0,0,0,.337.059.981.981,0,0,0,.8-.416,2.064,2.064,0,0,1,1.7-.9,2.09,2.09,0,0,1,1.674.843.981.981,0,0,0,1.152.325,8,8,0,0,0,2.132-1.274.986.986,0,0,0,.288-1.122,2.079,2.079,0,0,1,1.673-2.873.986.986,0,0,0,.838-.81A7.727,7.727,0,0,0,17,9.375a7.655,7.655,0,0,0-.133-1.426.976.976,0,0,0-.821-.793ZM11.664,9.373A2.666,2.666,0,1,1,9,6.708a2.666,2.666,0,0,1,2.666,2.666Z" transform="translate(0 0)" fill="#5d676e"/>
    </g>
  </g>
</svg>
